<svg xmlns="http://www.w3.org/2000/svg" width="59.144" height="61.458" viewBox="0 0 59.144 61.458"><g fill="none" stroke="#fff" stroke-miterlimit="10" stroke-width="4"><path d="M2.9 52.044 40 5.644a9.557 9.557 0 0 1 14.3-.8h0a9.548 9.548 0 0 1-.8 14.3l-46.3 37.2a3.055 3.055 0 0 1-4.3-4.3Z" stroke-linecap="square"></path><path d="m24.4 42.544 17.5 17.5M44.7 14.044l9.4 9.4a8.571 8.571 0 0 1 0 12.2 8.571 8.571 0 0 1-12.2 0l-21.3-21.3a8.571 8.571 0 0 0-12.2 0 8.571 8.571 0 0 0 0 12.2l8.3 8.3M32.2 1.544l6.2 6.2"></path><path stroke-linecap="square" d="m42.7 16.044 4-4"></path></g></svg>