<svg xmlns="http://www.w3.org/2000/svg" width="250" height="160" viewBox="0 0 250 160" fill="none"><path d="M33.924 132.057h11.73c5.046 0 7.537-1.924 7.537-5.55 0-2.618-1.608-4.51-5.014-4.92v-.031c3.028-.442 4.478-2.302 4.478-4.73 0-3.658-2.46-5.551-7.663-5.582H33.924v20.813Zm6.18-12.551v-3.721h3.532c1.64 0 2.429.631 2.429 1.861 0 1.261-.789 1.86-2.429 1.86h-3.532Zm0 8.199v-3.752h4.069c1.64 0 2.428.662 2.428 1.86 0 1.261-.789 1.892-2.428 1.892h-4.069ZM75.183 132.057h6.623l-7.032-20.813h-7.727l-7 20.813h6.433l1.198-4.32h6.339l1.166 4.32Zm-6.37-8.483 1.167-4.163.852-3.374h.063l.883 3.406 1.103 4.131h-4.068ZM96.362 127.232v-15.988H89.93v20.813h16.335v-4.825h-9.902ZM128.386 132.057h6.623l-7.032-20.813h-7.727l-7 20.813h6.433l1.198-4.32h6.339l1.166 4.32Zm-6.37-8.483 1.167-4.163.852-3.374h.063l.883 3.406 1.103 4.131h-4.068ZM162.747 111.244h-5.645v9.019l.126 4.131h-.031l-1.356-2.838-5.677-10.312h-7.032v20.813h5.613v-9.019l-.126-4.131h.063l1.325 2.838 5.676 10.312h7.064v-20.813ZM191.921 125.876l-5.739-1.545c-.379 2.144-1.388 3.122-3.532 3.122-2.618 0-3.91-1.924-3.91-5.803 0-3.91 1.419-5.802 3.973-5.802 1.924 0 2.964.694 3.437 3.343l5.582-2.239c-.978-4.194-4.73-6.023-9.208-6.023-6.433 0-10.407 3.941-10.407 10.721s3.974 10.722 10.438 10.722c4.604 0 8.168-1.86 9.366-6.496ZM207.049 127.232v-3.311h8.262v-4.478h-8.262v-3.374h10.343v-4.825h-16.776v20.813h17.186v-4.825h-10.753ZM41.086 74.859h-2.187l-1.163 2.262-.624 1.375-.613-1.375-1.162-2.262h-2.225l2.912 5.236v3.012h2.15v-3.012l2.912-5.236ZM47.488 74.734c-2.511 0-4.049 1.587-4.049 4.249s1.538 4.249 4.05 4.249c2.511 0 4.036-1.587 4.036-4.249S50 74.734 47.488 74.734Zm0 1.687c1.188 0 1.837.875 1.837 2.562 0 1.687-.65 2.562-1.837 2.562-1.2 0-1.85-.875-1.85-2.562 0-1.687.65-2.562 1.85-2.562ZM58.777 78.646v1.45h2.05v.124c0 .925-.725 1.362-1.7 1.362-1.337 0-2.025-.837-2.025-2.599 0-1.7.713-2.562 1.963-2.562.787 0 1.374.375 1.587 1.212l1.987-.787c-.663-1.487-1.763-2.112-3.637-2.112-2.537 0-4.111 1.6-4.111 4.262 0 2.736 1.612 4.236 3.836 4.236 1.137 0 1.912-.4 2.362-1.087l.063.962h1.5v-4.461h-3.875ZM71.82 83.107h2.212l-2.887-8.248H68.57l-2.899 8.248h2.162l.575-1.862h2.85l.562 1.862Zm-2.95-3.324.613-1.987.337-1.287h.025l.362 1.3.6 1.974H68.87ZM185.383 74.734c-2.262 0-3.55 1.137-3.55 2.687 0 1.612 1.263 2.187 3.212 2.574 1.125.213 1.6.425 1.6.813 0 .474-.45.75-1.375.75-1.1 0-1.9-.288-2.574-1.225l-1.1 1.5c.812.9 1.837 1.399 3.787 1.399 1.987 0 3.486-.925 3.486-2.537 0-1.45-.887-2.187-3.174-2.6-1.175-.212-1.625-.437-1.625-.862 0-.475.463-.824 1.35-.824 1.05 0 1.75.387 2.299 1.212l1.213-1.4c-.95-1.062-2-1.487-3.549-1.487ZM196.237 74.859h-3.787v8.248h2.15v-2.862h1.637c2.049 0 3.187-.962 3.187-2.65 0-1.774-1.138-2.736-3.187-2.736Zm-.338 3.812H194.6v-2.187h1.299c.95 0 1.363.362 1.363 1.087 0 .737-.413 1.1-1.363 1.1ZM207.491 83.107h2.212l-2.886-8.248h-2.575l-2.899 8.248h2.162l.575-1.862h2.849l.562 1.862Zm-2.949-3.324.613-1.987.337-1.287h.025l.362 1.3.6 1.974h-1.937Z" fill="#000"></path><path d="M34.623 91.606h37M177.623 92.606h37" stroke="#000" stroke-width="2" stroke-linecap="round" stroke-linejoin="round"></path><path d="M97.8 66.047c8.752 10.475 20.011 14.353 28.283 16.853 8.272 2.5 17.365 14.79 17.365 14.79s-10.467-11.133-11.462-19.718c-.995-8.585-2.806-20.355-11.558-30.829-8.752-10.474-20.01-14.352-28.281-16.857C83.876 27.781 74.781 15.5 74.781 15.5s10.468 11.133 11.462 19.718c.994 8.585 2.807 20.354 11.557 30.829Z" stroke="#000" stroke-width="3" stroke-linecap="round" stroke-linejoin="round"></path><path d="M151.871 66.047C143.12 76.522 131.861 80.4 123.589 82.9c-8.272 2.5-17.365 14.79-17.365 14.79s10.467-11.133 11.461-19.718c.994-8.585 2.807-20.355 11.558-30.829s20.011-14.352 28.282-16.857c8.271-2.505 17.366-14.786 17.366-14.786s-10.468 11.134-11.462 19.719c-.994 8.585-2.807 20.354-11.558 30.829" stroke="#000" stroke-width="3" stroke-linecap="round" stroke-linejoin="round"></path></svg>