<svg xmlns="http://www.w3.org/2000/svg" width="250" height="160" viewBox="0 0 250 160" fill="none"><path d="M172.144 93.118v.429s1.326 25.039-29.262 28.052l-3.065-.055a38.421 38.421 0 0 1-15.88-4.928" stroke="#000" stroke-width="3" stroke-linecap="round" stroke-linejoin="round"></path><path d="M74.584 95.179c.329 5.608 3.391 23.874 29.233 26.419l3.065-.055c30.038-3.25 28.728-28 28.728-28 0-10.424-5.679-21.326-12.258-30.754-6.58 9.431-12.259 20.333-12.259 30.756a26.792 26.792 0 0 0 1.775 9.8" stroke="#000" stroke-width="3" stroke-linecap="round" stroke-linejoin="round"></path><path d="M136.613 120.419c23.342-5.821 22.038-26.872 22.038-26.872 0-22.4-24.69-47-32.761-54.441M120.785 39.164c-8.137 7.514-32.7 32.044-32.7 54.382 0 0-1.376 22.211 24 27.312" stroke="#000" stroke-width="3" stroke-linecap="round" stroke-linejoin="round"></path><path d="m63.938 42.452-2.5-2.921.044-.053 3.301 1.972 5.907 3.058 3.263-3.868-8.8-13.11-3.144 3.726 7.388 8.97-10.354-5.454-2.67 3.164 7.23 9.23-10.151-5.767-3.263 3.868 14.405 6.466 3.352-3.973-4.008-5.308ZM83.104 29.397l-1.224-1.96 4.888-3.054-1.656-2.65-4.888 3.056-1.248-1.997 6.12-3.824-1.785-2.854-9.925 6.203 7.696 12.313 10.168-6.355-1.784-2.854-6.362 3.976ZM100.117 21.116 96.73 10.488l-4.276 1.364 4.41 13.834 10.857-3.462-1.022-3.207-6.582 2.099ZM117.859 17.44l-.874-11.12-4.474.353 1.137 14.475 11.361-.893-.263-3.356-6.887.541ZM148.241 8.432l-4.036-.815-1.302 6.447-.507 2.972-.022-.005-.56-2.224-2.568-8.192-5.028-1.016-3.006 14.88 4.013.81 1.303-6.448.506-2.971.045.009.537 2.22 2.569 8.192 5.05 1.02 3.006-14.88ZM156.766 24.553l1.048-2.059 5.136 2.617 1.418-2.783-5.135-2.617 1.068-2.097 6.43 3.276 1.528-3-10.428-5.313-6.592 12.937 10.683 5.444 1.528-3-6.684-3.405ZM182.016 27.08c-3.286-2.913-6.513-2.946-8.48-.727-2.242 2.529-.552 5.163 1.303 7.575 1.041 1.322 1.546 2.139 1.134 2.603-.412.465-1.118.36-2.237-.63-1.496-1.327-2.231-2.716-2.202-4.656l-3.769.96c.282 2.247 1.077 4.088 3.847 6.543s6.068 3.136 8.126.813c1.861-2.099 1.533-4.294-1.217-7.776-1.024-1.306-1.492-2.06-1.111-2.49.457-.516 1.345-.374 2.343.51 1.359 1.205 1.961 2.537 1.942 4.395l3.688-.695c-.197-2.724-1.217-4.52-3.367-6.425ZM196.683 43.877c-2.442-3.651-5.556-4.5-8.022-2.85-2.809 1.879-1.841 4.856-.657 7.66.673 1.543.955 2.46.439 2.806-.516.345-1.174.066-2.005-1.177-1.113-1.663-1.472-3.193-.952-5.062l-3.891-.026c-.296 2.246.007 4.229 2.066 7.306 2.059 3.077 5.078 4.571 7.658 2.845 2.332-1.56 2.571-3.768.791-7.834-.66-1.523-.923-2.37-.445-2.69.574-.384 1.397-.022 2.139 1.087 1.01 1.51 1.255 2.95.767 4.743l3.744.262c.499-2.686-.033-4.681-1.632-7.07ZM71.91 136.325a.4.4 0 0 1-.123-.161c-.025-.05-.024-.092.005-.125a.137.137 0 0 1 .128-.051.71.71 0 0 1 .235.097c.235.13.42.185.553.163.144-.023.298-.133.463-.33l3.204-3.817c.165-.196.252-.358.262-.483.01-.126-.067-.291-.23-.496a.846.846 0 0 1-.136-.214c-.016-.061-.007-.112.026-.151.028-.034.069-.048.121-.042.058.011.121.044.188.101.163.137.341.296.534.477.17.162.306.285.407.37l.462.374c.223.168.416.32.579.457.14.118.18.213.119.286-.033.039-.081.057-.144.052a.865.865 0 0 1-.235-.097c-.251-.134-.457-.192-.617-.173-.153.024-.301.12-.443.289l-1.35 1.609c-.053.062-.04.126.04.192l2.814 2.362c.05.043.106.028.167-.046l1.337-1.592c.142-.169.208-.333.2-.494-.004-.156-.09-.343-.26-.563a.85.85 0 0 1-.137-.214c-.015-.061-.007-.112.026-.151.062-.073.162-.05.303.067.152.128.34.296.567.505l.482.419a7 7 0 0 0 .393.301c.2.149.38.29.537.422a.428.428 0 0 1 .132.168c.02.056.016.1-.012.134-.033.039-.081.056-.144.052a.865.865 0 0 1-.235-.097c-.23-.126-.408-.17-.535-.133-.127.037-.266.146-.416.325l-3.205 3.817c-.174.208-.266.375-.276.501-.004.13.078.3.248.509a.709.709 0 0 1 .135.215.139.139 0 0 1-.027.135c-.028.034-.072.04-.131.019a.39.39 0 0 1-.18-.094 6.8 6.8 0 0 1-.518-.478 9.753 9.753 0 0 0-.415-.377 11.197 11.197 0 0 0-.47-.365 7.441 7.441 0 0 1-.585-.449.393.393 0 0 1-.124-.161c-.025-.05-.023-.091.005-.125.038-.045.08-.062.128-.05.053.005.131.038.235.096.234.12.434.173.6.159.17-.01.327-.099.468-.268l1.365-1.626c.071-.084.084-.145.039-.183l-2.873-2.412c-.028-.023-.055-.031-.08-.024a.271.271 0 0 0-.073.069l-1.336 1.592a.769.769 0 0 0-.194.556c.023.201.116.409.28.624a.705.705 0 0 1 .137.214c.025.05.019.097-.019.142-.028.034-.072.041-.131.02a.4.4 0 0 1-.18-.094 8.027 8.027 0 0 1-.552-.506c-.215-.2-.379-.347-.491-.441a11.73 11.73 0 0 0-.478-.373 6.846 6.846 0 0 1-.569-.434ZM81.812 144.178c-.33-.219-.566-.5-.709-.841a2.108 2.108 0 0 1-.136-1.107 2.97 2.97 0 0 1 .483-1.185 2.403 2.403 0 0 1 2.057-1.089c.41.007.779.12 1.109.339.378.252.615.572.709.96.1.393.037.76-.19 1.102-.07.104-.145.164-.226.18-.075.021-.162-.001-.26-.066l-1.896-1.26c-.085-.057-.163-.073-.232-.049-.063.029-.137.107-.222.236a1.914 1.914 0 0 0-.32.857c-.033.304.006.589.118.858.123.266.306.48.55.642.343.228.737.296 1.184.206.063-.029.113-.031.15-.007.055.037.06.089.016.156-.061.092-.181.179-.36.263-.266.122-.566.17-.9.142a1.984 1.984 0 0 1-.925-.337Zm1.89-2.786c.275.183.496.307.663.374.067.019.145-.04.234-.174a.646.646 0 0 0 .076-.571.893.893 0 0 0-.382-.518.93.93 0 0 0-.474-.142 1.26 1.26 0 0 0-.53.083.784.784 0 0 0-.357.278c-.049.074-.033.137.046.189l.724.481ZM86.454 145.86a.745.745 0 0 1-.291-.321 1.114 1.114 0 0 1-.129-.449.775.775 0 0 1 .085-.421.745.745 0 0 1 .41-.368c.17-.058.398-.073.686-.043l1.047.112c.143.018.236.016.278-.006.043-.022.101-.093.175-.212l.313-.524a.619.619 0 0 0 .096-.461.476.476 0 0 0-.263-.352.912.912 0 0 0-.278-.096.667.667 0 0 0-.264.002c-.073.021-.138.083-.196.188l-.098.198c-.026.046-.148.066-.365.06-.209-.009-.362-.04-.462-.095a.139.139 0 0 1-.068-.084.145.145 0 0 1 .018-.093c.106-.193.34-.326.702-.4.304-.068.62-.087.947-.058.33.023.588.086.775.189a.87.87 0 0 1 .454.583c.061.248.016.501-.135.76l-1.14 1.953a.558.558 0 0 0-.095.358c.013.114.063.195.15.244.14.077.265.101.374.069.036-.01.063-.01.08-.001.03.016.046.041.05.074.014.03.015.057.002.081-.036.064-.117.114-.244.15a1.232 1.232 0 0 1-.45.049.805.805 0 0 1-.371-.092c-.298-.165-.444-.452-.438-.86l-.027-.015a2.31 2.31 0 0 1-.74.058 1.456 1.456 0 0 1-.588-.177Zm.716-.22c.163.09.34.108.53.054.091-.026.181-.114.271-.262l.294-.489.024-.044c.045-.081.042-.137-.01-.166a.456.456 0 0 0-.174-.038c-.311-.043-.551-.043-.72 0a.567.567 0 0 0-.357.272c-.08.146-.105.28-.075.404.04.121.112.211.217.269ZM90.686 149.111c-.133-.062-.183-.13-.148-.203.021-.046.053-.072.096-.076.052-.008.126-.01.221-.006.168.022.291.027.37.015.088-.015.16-.083.216-.202l2.307-4.932c.2-.425.167-.736-.098-.933-.047-.038-.051-.097-.014-.177.034-.073.078-.105.13-.096.314.073.62.12.92.138.308.015.493.025.556.03.046.005.08.013.099.022.02.009.029.025.026.048a.121.121 0 0 1-.008.07 6.228 6.228 0 0 1-.193.334 8.502 8.502 0 0 0-.39.753l-2.418 5.171c-.056.12-.062.219-.017.296.044.078.127.169.248.274.128.125.175.224.14.297-.03.066-.112.068-.245.006a7.12 7.12 0 0 1-.47-.244 6.486 6.486 0 0 0-.418-.22 6.408 6.408 0 0 0-.428-.176 3.38 3.38 0 0 1-.482-.189ZM96.066 151.592c-.376-.149-.624-.369-.745-.661-.114-.29-.09-.639.071-1.048l.938-2.374a.121.121 0 0 0-.027-.141c-.037-.046-.117-.093-.24-.142l-.082-.032c-.04-.016-.064-.057-.07-.122a.41.41 0 0 1 .028-.19.117.117 0 0 1 .045-.054.228.228 0 0 1 .067-.02c.234-.034.487-.096.76-.185.271-.09.508-.182.711-.275l.1-.043a.198.198 0 0 1 .157-.009c.102.04.13.11.083.21l-.26.477-.016.041c-.024.061-.021.114.009.157a.45.45 0 0 0 .172.103l1.187.469c.02.008.031.04.033.096a.385.385 0 0 1-.026.155.802.802 0 0 1-.116.203c-.047.06-.084.085-.112.074l-.992-.392c-.17-.067-.29-.095-.358-.082-.061.015-.116.084-.164.207l-.784 1.985c-.114.286-.143.531-.09.733.057.196.192.336.403.419.177.071.322.112.436.125.12.016.24.012.359-.011l.06-.001c.054.022.06.087.016.196-.018.048-.118.1-.297.155-.17.051-.37.078-.6.082a1.578 1.578 0 0 1-.656-.105ZM99.333 152.708c-.14-.043-.198-.106-.173-.19a.137.137 0 0 1 .084-.09.664.664 0 0 1 .215-.027c.153 0 .272-.014.358-.042.094-.033.16-.117.201-.25l1.556-5.195c.063-.211.083-.393.06-.545-.023-.153-.115-.268-.275-.347-.059-.033-.075-.095-.048-.186.021-.07.063-.108.126-.112.188.011.422.008.702-.008.288-.013.541-.029.761-.047a.339.339 0 0 1 .101.007c.056.017.075.057.056.12-.01.035-.055.133-.134.293-.076.153-.177.441-.304.862l-.612 2.045c-.049.161-.063.287-.044.377.302-.116.599-.2.89-.25.3-.056.597-.04.892.049.359.107.613.333.763.676.158.339.174.722.045 1.151l-.672 2.244c-.038.127-.031.232.02.316a.973.973 0 0 0 .269.253.627.627 0 0 1 .154.138.14.14 0 0 1 .021.121c-.025.085-.112.105-.259.06a3.183 3.183 0 0 1-.476-.176 4.634 4.634 0 0 0-.415-.148 4.719 4.719 0 0 0-.428-.105 2.876 2.876 0 0 1-.483-.11c-.148-.045-.209-.109-.184-.193.015-.049.043-.079.084-.09a.638.638 0 0 1 .205-.03.88.88 0 0 0 .342-.07c.089-.042.154-.13.194-.264l.638-2.128a.859.859 0 0 0-.098-.707c-.128-.238-.298-.388-.509-.451a1.748 1.748 0 0 0-.461-.069.973.973 0 0 0-.43.055.594.594 0 0 0-.259.175 1.388 1.388 0 0 0-.159.377l-.66 2.202c-.031.129-.023.231.023.306a.868.868 0 0 0 .241.233c.14.095.198.181.175.259-.025.084-.108.105-.249.063a3.154 3.154 0 0 1-.475-.177 6.044 6.044 0 0 0-.415-.147 5.364 5.364 0 0 0-.439-.108 4.039 4.039 0 0 1-.515-.12ZM108.455 155.262a1.912 1.912 0 0 1-.945-.484 2.111 2.111 0 0 1-.541-.929 2.504 2.504 0 0 1-.023-1.161c.094-.46.283-.859.569-1.198.287-.346.63-.594 1.027-.745a2.172 2.172 0 0 1 1.232-.098c.518.105.926.341 1.226.709.066.081.091.157.077.229-.018.086-.096.175-.234.267-.137.084-.252.117-.346.098a.292.292 0 0 1-.131-.072 1.494 1.494 0 0 1-.11-.123 3.44 3.44 0 0 0-.486-.48c-.166-.139-.314-.221-.443-.248-.324-.065-.612.03-.866.285-.247.257-.423.644-.528 1.161-.104.51-.046.963.173 1.36.227.39.568.631 1.02.723a1.4 1.4 0 0 0 .559.013c.173-.04.362-.125.568-.255a.418.418 0 0 1 .153-.037.108.108 0 0 1 .078.061.174.174 0 0 1 .01.114c-.017.087-.082.186-.195.297a2.062 2.062 0 0 1-.812.464 2.007 2.007 0 0 1-1.032.049ZM113.275 155.06a.738.738 0 0 1-.39-.189 1.092 1.092 0 0 1-.287-.367.773.773 0 0 1-.079-.423.742.742 0 0 1 .242-.494c.135-.118.342-.217.62-.297l1.013-.289c.139-.036.224-.073.255-.109.032-.037.059-.124.083-.262l.094-.603a.624.624 0 0 0-.084-.464.475.475 0 0 0-.375-.227.894.894 0 0 0-.294.014.687.687 0 0 0-.244.101c-.06.046-.097.129-.111.248l-.017.22c-.007.053-.112.117-.316.193-.197.07-.351.098-.464.084a.135.135 0 0 1-.094-.052.145.145 0 0 1-.019-.093c.027-.218.194-.43.501-.634.257-.176.542-.313.856-.408.315-.103.578-.141.79-.115a.872.872 0 0 1 .64.371c.149.206.202.458.159.755l-.325 2.237a.561.561 0 0 0 .045.368c.055.101.132.157.231.169.159.02.283-.005.372-.075.03-.023.055-.033.075-.031.033.004.058.02.074.049.024.023.035.048.031.075-.008.073-.065.15-.169.231-.126.099-.259.17-.399.213a.783.783 0 0 1-.379.054c-.338-.041-.581-.253-.729-.633l-.029-.004a2.283 2.283 0 0 1-.666.331 1.428 1.428 0 0 1-.611.056Zm.582-.472a.675.675 0 0 0 .512-.149c.074-.058.125-.173.153-.344l.089-.563.006-.05c.012-.093-.013-.143-.072-.15a.455.455 0 0 0-.175.029c-.305.077-.528.167-.668.271a.56.56 0 0 0-.228.385.548.548 0 0 0 .081.403.46.46 0 0 0 .302.168ZM118.564 156.51c-.147-.007-.218-.054-.214-.142a.147.147 0 0 1 .061-.118.63.63 0 0 1 .201-.068.618.618 0 0 0 .325-.129.395.395 0 0 0 .111-.27l.11-2.418a1.084 1.084 0 0 0-.067-.476.441.441 0 0 0-.308-.256.202.202 0 0 1-.085-.059.177.177 0 0 1-.028-.112c.003-.073.042-.122.117-.148.192-.043.405-.111.636-.203a6.93 6.93 0 0 0 .618-.269c.098-.055.165-.081.202-.079.051.002.076.033.073.091l-.071.845c-.002.029.005.044.02.045.201-.233.419-.422.653-.565.241-.144.472-.21.692-.2.19.008.335.055.434.14a.346.346 0 0 1 .14.304c-.006.139-.068.283-.185.432-.109.149-.226.221-.351.216-.058-.003-.174-.049-.346-.137a1.632 1.632 0 0 0-.162-.074.45.45 0 0 0-.195-.064.699.699 0 0 0-.537.196c-.146.141-.227.387-.243.738l-.093 2.066c-.005.11.035.2.12.27.085.07.228.142.43.217a.518.518 0 0 1 .184.086c.042.031.063.069.061.113-.004.088-.076.128-.215.122a4.592 4.592 0 0 1-.581-.059 7.643 7.643 0 0 0-.505-.045 6.47 6.47 0 0 0-.462.001 3.902 3.902 0 0 1-.54.009ZM125.842 156.761a1.86 1.86 0 0 1-1.065-.277 2.098 2.098 0 0 1-.75-.825 2.946 2.946 0 0 1-.29-1.246c-.013-.425.074-.82.262-1.185.194-.373.457-.67.788-.893.338-.23.704-.351 1.1-.363.455-.013.833.112 1.134.374.308.262.469.599.481 1.009.004.125-.023.217-.08.278-.05.06-.133.092-.25.095l-2.276.068c-.103.003-.175.034-.218.094-.034.06-.05.167-.045.321.009.322.088.617.235.884s.344.478.591.632c.254.146.527.215.821.207.41-.013.772-.185 1.085-.517.035-.059.074-.09.118-.091.066-.002.1.037.103.118.003.11-.044.251-.142.422a1.764 1.764 0 0 1-.652.636 1.988 1.988 0 0 1-.95.259Zm-.067-3.366a3.89 3.89 0 0 0 .757-.077c.066-.024.096-.117.091-.278a.644.644 0 0 0-.268-.509.89.89 0 0 0-.611-.202.926.926 0 0 0-.469.157c-.158.1-.287.225-.385.374a.79.79 0 0 0-.13.433c.002.088.051.131.147.128l.868-.026ZM137.623 155.494c-.7.128-1.381.096-2.043-.096a3.9 3.9 0 0 1-1.697-1.021 3.459 3.459 0 0 1-.887-1.795 3.344 3.344 0 0 1 .222-1.965 3.92 3.92 0 0 1 1.292-1.623 4.7 4.7 0 0 1 2.052-.89c.368-.068.693-.101.977-.101.283.001.626.02 1.028.058a.401.401 0 0 1 .23.093.337.337 0 0 1 .126.2c.12.411.229.823.327 1.238a.167.167 0 0 1-.041.142.193.193 0 0 1-.111.065c-.109.02-.187-.022-.236-.125a3.119 3.119 0 0 0-.371-.625 1.248 1.248 0 0 0-.437-.368c-.404-.21-.926-.256-1.569-.138a2.521 2.521 0 0 0-1.34.681c-.36.357-.617.788-.771 1.293a3.338 3.338 0 0 0-.075 1.547c.112.613.329 1.166.651 1.659.328.492.731.862 1.209 1.11.484.24 1.008.308 1.57.205.513-.094.918-.283 1.216-.569.298-.286.524-.681.678-1.187.039-.111.106-.176.2-.193a.147.147 0 0 1 .116.024c.034.023.056.064.067.122.018.101.019.268.002.503a4.855 4.855 0 0 1-.069.661.735.735 0 0 1-.083.217.605.605 0 0 1-.186.145 4.382 4.382 0 0 1-.918.426 6.778 6.778 0 0 1-1.129.307ZM145.015 153.727c-.38.112-.746.112-1.1.002a2.109 2.109 0 0 1-.935-.609 2.967 2.967 0 0 1-.595-1.132 2.394 2.394 0 0 1 .49-2.276c.269-.308.593-.518.973-.629.437-.128.834-.103 1.191.075.365.175.605.46.721.854.035.12.033.216-.007.289-.033.071-.105.123-.218.156l-2.185.64c-.099.029-.161.078-.186.147-.019.066-.007.174.037.321.09.31.241.575.451.797.21.221.454.375.731.461.283.078.565.076.846-.007.395-.116.701-.374.92-.774.019-.067.049-.106.091-.118.064-.019.107.01.129.088.031.105.021.254-.03.444a1.766 1.766 0 0 1-.47.78 1.994 1.994 0 0 1-.854.491Zm-.915-3.239c.316-.093.554-.182.713-.266.057-.04.063-.137.017-.292a.645.645 0 0 0-.388-.425.894.894 0 0 0-.643-.041.925.925 0 0 0-.413.27c-.128.137-.221.29-.278.46a.792.792 0 0 0-.017.452c.025.084.083.113.175.086l.834-.244ZM148.964 152.364a.372.372 0 0 1-.165.03.107.107 0 0 1-.088-.072.145.145 0 0 1 .007-.133.66.66 0 0 1 .156-.144c.123-.088.209-.169.258-.244.054-.084.056-.188.008-.31l-.889-2.251c-.078-.198-.161-.339-.249-.422-.091-.091-.216-.128-.376-.112-.073.013-.126-.021-.159-.103-.035-.089-.023-.149.036-.18.391-.288.718-.618.981-.99.038-.063.074-.101.109-.114.047-.019.083.002.108.064l.06.213c.012.05.029.114.052.192.023.077.05.157.083.239.029.075.054.117.073.125.147-.326.329-.595.545-.806a2.23 2.23 0 0 1 .79-.514c.341-.134.678-.11 1.011.074.33.177.578.474.742.89l.872 2.21c.049.123.115.191.2.205.084.014.211.016.379.004.172-.005.273.031.302.106.03.075-.02.138-.15.189-.191.075-.358.13-.503.163a6.648 6.648 0 0 0-.438.149 6.65 6.65 0 0 0-.421.19 3.499 3.499 0 0 1-.479.225.317.317 0 0 1-.145.022c-.047.002-.078-.017-.094-.058-.03-.075.02-.169.148-.283a1.48 1.48 0 0 0 .265-.258c.052-.068.054-.163.005-.286l-.836-2.118c-.11-.28-.272-.468-.484-.566-.214-.105-.449-.11-.704-.018-.375.149-.662.4-.861.754a.31.31 0 0 0 .002.248l.97 2.455c.048.123.116.195.203.216.087.02.206.021.356.001.166-.018.265.014.297.095.033.082-.016.149-.145.2a3.495 3.495 0 0 1-.493.159c-.17.051-.312.099-.428.145-.109.043-.25.107-.422.19a3.789 3.789 0 0 1-.489.229ZM157.555 148.797c-.361.179-.691.215-.989.109-.291-.109-.535-.36-.73-.755l-1.134-2.286c-.026-.052-.067-.077-.123-.074-.059-.004-.147.024-.266.083l-.079.039c-.039.019-.085.009-.137-.03a.43.43 0 0 1-.123-.148c-.009-.02-.013-.043-.009-.069.01-.03.02-.051.029-.064a4.47 4.47 0 0 0 .372-.687c.115-.262.206-.5.273-.713l.034-.103c.02-.059.053-.1.099-.123.099-.049.169-.022.211.08l.181.512.019.039c.03.059.071.092.123.099a.463.463 0 0 0 .192-.058l1.143-.567c.02-.01.051.003.094.039a.41.41 0 0 1 .098.124c.035.072.06.146.073.221.012.076.006.12-.021.133l-.955.474c-.165.082-.265.152-.301.211-.03.055-.015.142.043.261l.948 1.911c.137.276.299.462.485.558a.63.63 0 0 0 .581-.018c.171-.085.299-.164.384-.24.093-.078.17-.17.233-.274l.039-.044c.053-.027.105.013.157.118.023.046-.005.154-.085.325-.076.16-.189.327-.341.5-.148.18-.321.319-.518.417ZM162.25 146.25a1.873 1.873 0 0 1-1.066.273 2.11 2.11 0 0 1-1.056-.359 2.97 2.97 0 0 1-.857-.95 2.388 2.388 0 0 1-.344-1.164c-.01-.42.075-.808.257-1.163a2.03 2.03 0 0 1 .788-.85c.391-.231.782-.305 1.173-.221.397.08.7.297.909.65.064.107.085.201.065.281-.015.077-.072.145-.173.205l-1.959 1.16c-.089.053-.137.115-.145.188-.002.069.037.17.115.303.165.277.376.497.634.66.258.162.533.251.823.267.293.005.566-.067.818-.216.354-.21.587-.535.7-.977.002-.069.021-.115.059-.138.057-.033.106-.015.147.054.056.095.083.241.081.438a1.774 1.774 0 0 1-.264.872 1.995 1.995 0 0 1-.705.687Zm-1.687-2.913a4.05 4.05 0 0 0 .625-.434c.045-.053.027-.149-.055-.288a.644.644 0 0 0-.481-.315.886.886 0 0 0-.633.119.913.913 0 0 0-.334.364c-.09.164-.142.335-.156.514a.79.79 0 0 0 .096.442c.044.075.108.089.19.04l.748-.442ZM165.685 143.953c-.12.084-.205.09-.256.018a.149.149 0 0 1-.024-.131.671.671 0 0 1 .118-.177c.103-.108.163-.208.179-.3a.395.395 0 0 0-.076-.282l-1.389-1.982a1.082 1.082 0 0 0-.343-.337.446.446 0 0 0-.401-.015.192.192 0 0 1-.103.006.176.176 0 0 1-.09-.072c-.042-.06-.042-.123.001-.189.127-.151.254-.334.381-.549.134-.218.242-.415.325-.59.045-.103.082-.165.112-.186.042-.029.08-.02.114.028l.459.713c.016.024.031.032.043.023a2.79 2.79 0 0 1 .173-.846c.103-.261.245-.454.426-.581.156-.109.299-.16.429-.153a.347.347 0 0 1 .297.155c.08.114.119.266.117.455.005.185-.044.313-.146.385-.049.033-.168.068-.358.103-.033.005-.09.018-.173.04a.447.447 0 0 0-.194.069.697.697 0 0 0-.306.483c-.03.2.056.444.258.733l1.186 1.693c.064.09.15.137.26.141.11.003.268-.027.474-.091a.516.516 0 0 1 .197-.044c.053-.001.092.016.117.052.051.073.019.149-.095.228-.174.123-.34.225-.496.308a8.082 8.082 0 0 0-.427.272 6.952 6.952 0 0 0-.366.283 3.88 3.88 0 0 1-.423.337Z" fill="#000"></path></svg>