<svg xmlns="http://www.w3.org/2000/svg" width="250" height="160" viewBox="0 0 250 160" fill="none"><g fill-rule="evenodd" clip-rule="evenodd"><path d="M48.932 57.502h4.251v.91h-3.251v1.478h2.88v.911h-2.88v1.535h3.291v.91h-4.291v-5.744Zm8.855 5.827a3.473 3.473 0 0 1-2.396-.919l.607-.722c.254.224.538.41.845.554.305.133.635.199.968.193.263.013.523-.057.743-.2a.616.616 0 0 0 .278-.52V61.7a.667.667 0 0 0-.053-.275.6.6 0 0 0-.2-.226 1.586 1.586 0 0 0-.4-.2 5.762 5.762 0 0 0-.654-.181 6.452 6.452 0 0 1-.819-.242 2.226 2.226 0 0 1-.6-.328 1.273 1.273 0 0 1-.371-.472 1.613 1.613 0 0 1-.127-.673v-.016a1.545 1.545 0 0 1 .55-1.2c.182-.152.392-.267.617-.341.253-.084.519-.126.786-.123.387-.006.772.057 1.137.185.343.127.663.309.948.538l-.542.763a3.52 3.52 0 0 0-.78-.439 2.112 2.112 0 0 0-.78-.152 1.078 1.078 0 0 0-.689.2.6.6 0 0 0-.246.484v.016a.7.7 0 0 0 .058.29c.047.096.12.175.209.23.131.083.272.148.42.194.179.06.4.123.68.189.272.067.54.152.8.254.211.08.407.195.58.34.15.129.269.288.35.468.083.196.123.407.119.62v.016c.004.249-.047.495-.15.722-.098.21-.241.395-.42.542a1.84 1.84 0 0 1-.644.337 2.84 2.84 0 0 1-.829.115m5.983-4.891h-1.822v-.935h4.661v.935h-1.822v4.809h-1.018l.001-4.809Zm1.4 8.785c.28.004.559-.045.821-.144a1.773 1.773 0 0 0 1.03-1.023c.098-.248.147-.512.144-.778v-.016a2.1 2.1 0 0 0-.144-.782 1.81 1.81 0 0 0-.4-.622 1.85 1.85 0 0 0-.628-.41 2.192 2.192 0 0 0-.821-.147h-1.132v3.923l1.13-.001Zm-2.134-4.834h2.142a3.4 3.4 0 0 1 1.235.217c.359.134.688.338.968.6.27.256.484.564.628.907.15.357.225.74.222 1.128v.016c.003.389-.072.774-.222 1.133a2.676 2.676 0 0 1-.628.91c-.28.264-.61.47-.968.608a3.339 3.339 0 0 1-1.235.222h-2.142v-5.741ZM176.305 60.325l-2.01-2.823h1.19l1.428 2.06 1.436-2.06h1.157l-2 2.807 2.084 2.938h-1.19l-1.51-2.175-1.518 2.175h-1.157l2.09-2.922Zm7.32 0-2.011-2.823h1.19l1.428 2.06 1.436-2.06h1.157l-2 2.807 2.084 2.938h-1.19l-1.51-2.175-1.518 2.175h-1.157l2.091-2.922Zm7.32 0-2.01-2.823h1.19l1.428 2.06 1.436-2.06h1.157l-2 2.807 2.085 2.938h-1.19l-1.51-2.175-1.518 2.175h-1.157l2.089-2.922Zm7.321 0-2.011-2.823h1.19l1.428 2.06 1.436-2.06h1.157l-2 2.807 2.084 2.938h-1.19l-1.51-2.175-1.518 2.175h-1.157l2.091-2.922ZM113.232 69.499h24.02a2.125 2.125 0 0 1 2.117 2.117 2.123 2.123 0 0 1-2.117 2.117h-24.02a2.125 2.125 0 0 1-2.117-2.117 2.127 2.127 0 0 1 2.117-2.117" fill="#363636"></path><path d="M122.738 63.528A34.626 34.626 0 0 0 118.113 58a26.053 26.053 0 0 0-4.171-3.268 30.322 30.322 0 0 0 8.8 8.8M120.435 56.7a26.64 26.64 0 0 1-.871-8.612l-1.092-1.416a23.479 23.479 0 0 0-6.445-5.317l-1.484-.786a25.729 25.729 0 0 0 .215 5.567 22.358 22.358 0 0 0 1.787 6.007l.918.473a28.255 28.255 0 0 1 7.589 6.154 31.857 31.857 0 0 1-.616-2.072M119.827 45.826a25.778 25.778 0 0 1 4.435-10.572l-.919-1.163a45.225 45.225 0 0 0-8.782-7.926 43.594 43.594 0 0 0-3.857 12.728 25.666 25.666 0 0 1 9.126 6.938M125.242 33.924a45.892 45.892 0 0 1 9.993-9.215 96.799 96.799 0 0 0-9.993-15.713 96.832 96.832 0 0 0-9.993 15.709 46.028 46.028 0 0 1 9.993 9.215M130.659 45.826a25.47 25.47 0 0 1 8.656-6.713l.47-.225a43.625 43.625 0 0 0-3.857-12.728 43.577 43.577 0 0 0-9.7 9.093 25.75 25.75 0 0 1 4.435 10.572M137.94 52.143a22.36 22.36 0 0 0 1.787-6.007c.273-1.843.345-3.709.215-5.567a25.518 25.518 0 0 0-5.287 3.443l-1.528 1.429-.9.986-.95 1.179-.351.482a26.634 26.634 0 0 1-.871 8.611 32.764 32.764 0 0 1-.617 2.072 29.798 29.798 0 0 1 5.012-4.546l2.805-1.732.685-.35ZM127.745 63.527a30.295 30.295 0 0 0 8.8-8.8l-.073.046a30.408 30.408 0 0 0-8.723 8.75" fill="#887F76"></path><path d="M125.242 46.765c-3.6 5.385-3.059 11.089 0 16.764 3.058-5.675 3.6-11.378 0-16.764Z" fill="#AFA59B"></path><path d="M30.882 92.959c-5.628 0-9.882 4.016-9.882 9.354a9.396 9.396 0 0 0 6 8.884 9.399 9.399 0 0 0 3.724.628 11.168 11.168 0 0 0 7.636-3.382l-2.748-2.906a6.934 6.934 0 0 1-4.65 2.167 5.41 5.41 0 0 1 0-10.807 6.329 6.329 0 0 1 4.65 2.4l2.722-3.224a10.74 10.74 0 0 0-7.451-3.118m22.988 15.25 1.321 3.409h5.02l-7.795-18.5h-4.835l-7.98 18.5h4.835l1.348-3.409h8.086Zm-1.371-3.567h-5.341l2.7-6.843 2.641 6.843Zm27.771 6.976v-18.5h-4.389v11.415l-8.534-11.415H63.2v18.5h4.412v-11.389l8.508 11.388 4.151.001Zm4.968-18.5v18.5H93c5.945 0 10.014-3.778 10.014-9.248 0-5.5-4.016-9.248-9.829-9.248l-7.946-.004Zm4.7 3.752h3.144c2.986 0 5.153 2.246 5.153 5.522 0 3.25-2.061 5.47-4.941 5.47H89.94l-.001-10.992Zm21.536 10.807V93.118h-4.7v18.5h12.548v-3.937l-7.848-.008Zm25.842-10.86v-3.7h-14.48v18.5h14.77v-3.7h-10.066v-3.728h8.825v-3.7h-8.825v-3.673l9.776.001Zm14.058 10.86V93.118h-4.7v18.5h12.551v-3.937l-7.851-.008Zm16.066-14.559h-4.7v18.5h4.7v-18.5Zm17.255 9.089v4.782a7.866 7.866 0 0 1-3.276.9 5.5 5.5 0 0 1-.053-10.992 7.59 7.59 0 0 1 4.941 2.008l2.642-3.2a11.823 11.823 0 0 0-7.557-2.748c-5.839 0-10.2 4.043-10.2 9.406 0 5.39 4.254 9.459 9.882 9.459a14.542 14.542 0 0 0 7.689-2.4v-7.213l-4.068-.002Zm25.684 9.406v-18.5h-4.7v7.61h-7.663v-7.61h-4.7v18.5h4.7v-7.187h7.663v7.187h4.7Zm19.1-14.718v-3.8h-15.8v3.8h5.522v14.718h4.7V96.896l5.578-.005Z" fill="#363636"></path><path d="M171.752 135.942a3.763 3.763 0 0 1 .251-1.547c.208-.418.486-.797.821-1.121a9.822 9.822 0 0 1 1.141-1.006 3.339 3.339 0 0 1 1.167-.577l.445-.02a1.9 1.9 0 0 1 1.042.327 1.116 1.116 0 0 1 .379 1.091 1.94 1.94 0 0 1-.775 1.355 4.454 4.454 0 0 1-1.593.821c-.594.165-.914.317-.956.452-.042.135.05.283.29.445.504.221 1.05.326 1.6.31.682.055 1.369.01 2.038-.135a7.403 7.403 0 0 0 1.286-.435 5.25 5.25 0 0 1 .772-.31c.188-.053.34.046.455.29a3.423 3.423 0 0 1-1.1 1.052 7.376 7.376 0 0 1-1.5.61 9.14 9.14 0 0 1-2.193.33h-.521a6.43 6.43 0 0 1-1.906-.379 2.264 2.264 0 0 1-.762-.571 2.104 2.104 0 0 1-.386-.983m1.7-1.276a4.853 4.853 0 0 0 1.576-.735c.264-.231.376-.445.336-.637-.04-.192-.257-.188-.656.02-.319.142-.6.356-.821.626-.16.233-.305.475-.435.726" fill="#887F76"></path><path d="M163.111 135.824a11.185 11.185 0 0 0 2.638-2.173 6.89 6.89 0 0 1 2.117-1.738 4.687 4.687 0 0 1 1.662-.28c.209.005.414.058.6.155a.608.608 0 0 1 .31.455c.039.232.032.47-.02.7a2.614 2.614 0 0 1-.462.94 3.839 3.839 0 0 1-.92.927 2.812 2.812 0 0 0-.732.686.538.538 0 0 0-.03.607c.115.2.564.221 1.342.059a13.732 13.732 0 0 0 1.728-.445 16.4 16.4 0 0 0 1.2-.492l.231.867c-.94.439-1.778.815-2.513 1.121-.74.313-1.52.521-2.318.62a8.255 8.255 0 0 1-1.237-.069 1.593 1.593 0 0 1-.781-.356 1.233 1.233 0 0 1-.445-.716 1.168 1.168 0 0 1 .145-.831c.181-.3.419-.562.7-.772.301-.24.633-.438.986-.59.341-.143.648-.357.9-.627.254-.271.313-.478.185-.62a.535.535 0 0 0-.561-.125 6.78 6.78 0 0 0-1.738 1.458 8.808 8.808 0 0 1-2.744 1.952l-.243-.713Z" fill="#887F76"></path><path d="M156.195 135.942a3.763 3.763 0 0 1 .251-1.547c.208-.418.486-.797.821-1.121a9.822 9.822 0 0 1 1.141-1.006 3.339 3.339 0 0 1 1.167-.577l.445-.02a1.9 1.9 0 0 1 1.042.327 1.116 1.116 0 0 1 .379 1.091 1.924 1.924 0 0 1-.775 1.355 4.454 4.454 0 0 1-1.593.821c-.594.165-.914.317-.956.452-.042.135.05.283.29.445.504.221 1.05.326 1.6.31.682.055 1.369.01 2.038-.135a7.374 7.374 0 0 0 1.286-.435 5.25 5.25 0 0 1 .772-.31c.188-.053.34.046.455.29a3.423 3.423 0 0 1-1.1 1.052 7.376 7.376 0 0 1-1.5.61 9.14 9.14 0 0 1-2.193.33h-.521a6.43 6.43 0 0 1-1.906-.379 2.264 2.264 0 0 1-.762-.571 2.104 2.104 0 0 1-.386-.983m1.7-1.276a4.853 4.853 0 0 0 1.576-.735c.264-.231.376-.445.336-.637-.04-.192-.257-.188-.656.02-.319.142-.6.356-.821.626-.16.233-.305.475-.435.726" fill="#887F76"></path><path d="M145.111 136.665a9.415 9.415 0 0 0 1.121-1.207c-.874.49-1.813.853-2.79 1.078a.59.59 0 0 1-.65-.518c.276-.264.61-.46.976-.571.561-.231 1.14-.478 1.738-.742a17.108 17.108 0 0 0 1.906-1 19.444 19.444 0 0 0 2.493-1.886 52.191 52.191 0 0 0 2.674-2.473c.792-.795 1.388-1.389 1.787-1.787.324-.315.627-.651.907-1.006.184-.255.451-.439.755-.521.683.2 1.032.468 1.052.792a1.625 1.625 0 0 1-.511 1.1 24.662 24.662 0 0 1-2.127 2 374.637 374.637 0 0 1-3.159 2.734c-1.051.899-1.768 1.497-2.153 1.794-.371.276-.68.626-.907 1.029 1.25-.683 2.1-1.131 2.549-1.342.41-.2.842-.352 1.286-.455.34-.091.698-.081 1.032.03a.751.751 0 0 1 .485.676c.029.377-.073.752-.29 1.062a9.933 9.933 0 0 1-.541.8c-.129.164-.162.307-.1.415.062.108.34.122.831.04a6.403 6.403 0 0 0 1.507-.465c.514-.224.933-.415 1.253-.567a.945.945 0 0 1 .716-.135c.155.063.27.313.35.752-.794.413-1.611.781-2.447 1.1a8.51 8.51 0 0 1-1.326.32 7.57 7.57 0 0 1-1.019.106 3.098 3.098 0 0 1-1-.175.86.86 0 0 1-.6-.716 1.2 1.2 0 0 1 .541-1.092c.425-.366.64-.613.64-.742s-.172-.106-.514.066-.745.379-1.217.61c-.472.231-.877.435-1.227.607l-1.227.62c-.472.237-.9.442-1.286.61a3.428 3.428 0 0 1-1.187.28.626.626 0 0 1-.643-.4c-.106-.267 0-.541.323-.818M128.697 135.942a3.747 3.747 0 0 1 .251-1.547c.208-.417.486-.797.821-1.121a9.822 9.822 0 0 1 1.141-1.006 3.339 3.339 0 0 1 1.167-.577l.445-.02a1.9 1.9 0 0 1 1.042.327 1.116 1.116 0 0 1 .379 1.091 1.94 1.94 0 0 1-.775 1.355 4.454 4.454 0 0 1-1.593.821c-.594.165-.914.317-.956.452-.042.135.05.283.29.445.504.221 1.05.326 1.6.31.682.055 1.369.01 2.038-.135a7.374 7.374 0 0 0 1.286-.435 5.25 5.25 0 0 1 .772-.31c.188-.053.34.046.455.29a3.434 3.434 0 0 1-1.1 1.052 7.376 7.376 0 0 1-1.5.61 9.14 9.14 0 0 1-2.193.33h-.521a6.43 6.43 0 0 1-1.906-.379 2.264 2.264 0 0 1-.762-.571 2.104 2.104 0 0 1-.386-.983m1.7-1.276a4.853 4.853 0 0 0 1.576-.735c.264-.231.376-.445.336-.637-.04-.192-.257-.188-.656.02-.319.142-.6.356-.821.626-.16.233-.305.475-.435.726" fill="#887F76"></path><path d="M115.634 135.282a5.9 5.9 0 0 0 1.177-.857 9.266 9.266 0 0 1 1.867-1.237 41.821 41.821 0 0 1 1.679-.831c.418-.19.868-.299 1.326-.32a1.075 1.075 0 0 1 .762.762c.082.382.047.779-.1 1.141a7.993 7.993 0 0 1-1.613 2.058 404.778 404.778 0 0 1 3.044-1.787 5.155 5.155 0 0 1 1.352-.607.834.834 0 0 1 .877.317c.247.29.247.712 0 1.266a1.962 1.962 0 0 0-.241 1.237c.086.27.7.244 1.857-.076a18.2 18.2 0 0 0 2.6-.89c.002.394-.14.776-.4 1.072a7.281 7.281 0 0 1-2.107.891 5 5 0 0 1-2.638.326 1.57 1.57 0 0 1-1.1-.752 1.501 1.501 0 0 1-.056-1.091c.115-.386-.223-.296-1.016.27a19.808 19.808 0 0 1-3.41 2.008 1.823 1.823 0 0 1-.937-.2.847.847 0 0 1-.379-.726 1.13 1.13 0 0 1 .515-.966c.366-.3.719-.6 1.062-.927.302-.259.52-.603.627-.986.079-.336-.119-.442-.587-.32a6.831 6.831 0 0 0-1.933 1.036c-.818.567-1.36.921-1.626 1.062a2.852 2.852 0 0 1-1.092.271c.066-.643.228-1.022.485-1.141M116.946 126.579l-.346-.1c-.346-.4-.613-.689-.792-.867.217-.412.554-.749.966-.966l.366-.02c.31.142.472.33.485.561.022.14.078.272.162.386a.88.88 0 0 0 .32.27l-.135.33a3.196 3.196 0 0 1-1.026.406" fill="#887F76"></path><path d="M105.285 135.833a5.975 5.975 0 0 0 2.282-1.655 4.25 4.25 0 0 1 1.636-1.342 6.754 6.754 0 0 0 1.484-.864 1.154 1.154 0 0 1 1.072-.31.606.606 0 0 1 .5.646 1.026 1.026 0 0 1-.581.851 2.83 2.83 0 0 0-.851.742 3.638 3.638 0 0 0-.455.88 1.43 1.43 0 0 0-.01.966.93.93 0 0 0 .63.627c.474.115.961.161 1.448.135a7.06 7.06 0 0 0 1.731-.2 4.941 4.941 0 0 0 1.3-.531 1.26 1.26 0 0 1 .947-.241l.115.462c-.18.285-.428.521-.722.686-.301.18-.613.338-.936.475a8.49 8.49 0 0 1-1.326.386c-.574.129-1.228.239-1.962.33l-.811.036a3.815 3.815 0 0 1-1.428-.376 2.123 2.123 0 0 1-.726-.706 1.795 1.795 0 0 1-.3-.887 2.78 2.78 0 0 1 .106-.884c.086-.293 0-.287-.264.023a3.994 3.994 0 0 1-1.078.861c-.455.264-.844.475-1.158.633-.314.158-.531-.089-.65-.742" fill="#887F76"></path><path d="M98.329 136.077a2.868 2.868 0 0 1 .782-1.4c.435-.51.897-.998 1.382-1.461a21.762 21.762 0 0 0 1.758-1.959 22.56 22.56 0 0 1 2.147-2.3 12.398 12.398 0 0 1 1.873-1.458 11.02 11.02 0 0 0 1.721-1.312l.366-.04c.269.037.532.111.781.221.19.09.354.228.475.4l.076.406a5.375 5.375 0 0 1-.831 1.481 9.96 9.96 0 0 1-1.593 1.758c-.6.521-1.171 1.016-1.718 1.487a6.65 6.65 0 0 1-1.721 1.092c-.6.257-1.125.478-1.576.656a3.596 3.596 0 0 0-1.207.8 4.313 4.313 0 0 0-.811 1.082 1.132 1.132 0 0 0-.125.927.72.72 0 0 0 .716.4 7.22 7.22 0 0 0 1.313-.1c.5-.079.989-.171 1.461-.28.43-.095.845-.244 1.237-.445.268-.138.529-.29.782-.455.168-.115.31.059.425.521a2.23 2.23 0 0 1-1.171.966 14.365 14.365 0 0 1-3.14.755h-1.332a2.763 2.763 0 0 1-1.392-.366 1.836 1.836 0 0 1-.462-.61 2.64 2.64 0 0 1-.214-.762m3.961-3.4a3.818 3.818 0 0 0 1.557-.5c.55-.322 1.07-.69 1.557-1.1a8.633 8.633 0 0 0 1.243-1.227 1.37 1.37 0 0 0 .4-.88c-.026-.218-.171-.3-.435-.251-.382.11-.739.29-1.055.531a8.658 8.658 0 0 0-1.382 1.247c-.481.528-.87.934-1.167 1.217a3.518 3.518 0 0 0-.716.966" fill="#887F76"></path><path d="M79.198 146.356a28.396 28.396 0 0 1 3.229-3.179 59.262 59.262 0 0 1 2.358-1.722 33.884 33.884 0 0 1 2.77-1.718c1.025-.574 1.908-1.06 2.648-1.458a17.806 17.806 0 0 1 2.388-1.065c-.811-.026-1.477-.046-2-.066a1.482 1.482 0 0 1-1.167-.521 1.63 1.63 0 0 1-.359-1.1 2.042 2.042 0 0 1 .841-1.316 8.198 8.198 0 0 1 1.652-1.131l2.173-1.1h.425c.454.189.832.523 1.075.95.185.336.279.716.27 1.1-.019.34-.11.672-.27.973-.162.3-.178.531-.049.679.129.148.488.142 1.082-.01a10.056 10.056 0 0 0 1.837-.7 2.417 2.417 0 0 1 2.068 0 11.06 11.06 0 0 1-2.473 1.408c-.533.168-1.178.393-1.933.676a8.479 8.479 0 0 0-3.545 2.243 19.512 19.512 0 0 0-2.252 2.668 72.578 72.578 0 0 1-2.444 3.179c-.8.983-1.471 1.791-1.992 2.414a20.943 20.943 0 0 1-1.952 2.008 7.952 7.952 0 0 1-1.834 1.372 4.522 4.522 0 0 1-1.266.379h-.425a2.75 2.75 0 0 1-1.537-.9 3.382 3.382 0 0 1-.511-1.553 6.694 6.694 0 0 1 1.2-2.513m.485 1.979a2.2 2.2 0 0 0-.28 1.372.534.534 0 0 0 .232.429.538.538 0 0 0 .484.066 3.582 3.582 0 0 0 1.217-.495c.617-.42 1.195-.895 1.728-1.418a22.116 22.116 0 0 0 2.183-2.368c.71-.884 1.56-1.972 2.553-3.265a161.483 161.483 0 0 1 2.975-3.76c-.8.467-1.644.967-2.533 1.5a37.13 37.13 0 0 0-2.694 1.787 21.388 21.388 0 0 0-2.724 2.378c-.91.927-1.596 1.66-2.058 2.2a7.968 7.968 0 0 0-1.082 1.573m11.526-12.288a1.378 1.378 0 0 0 1.177.175c.45-.092.855-.34 1.141-.7a1.82 1.82 0 0 0 .31-1.392c-.073-.574-.31-.795-.716-.666-.42.136-.812.352-1.151.636-.35.286-.648.632-.877 1.022a.627.627 0 0 0 .115.92" fill="#887F76"></path><path d="M78.724 134.158a9.073 9.073 0 0 1 1.883-1.454 17.48 17.48 0 0 1 1.362-.686 4.978 4.978 0 0 1 1.362-.31 3.322 3.322 0 0 1 1.537.3c.234.138.417.349.521.6.087.244.121.504.1.762-.02.284.106.392.369.33s.4.059.416.376c-.005.363-.14.713-.379.986a5.354 5.354 0 0 1-.627.716.377.377 0 0 0-.135.452.71.71 0 0 0 .531.369c.355.074.722.056 1.068-.053.39-.098.76-.262 1.095-.485.246-.183.536-.299.841-.336a.44.44 0 0 1 .495.284 1.218 1.218 0 0 1-.422.933c-.343.277-.74.478-1.167.59-.397.128-.808.21-1.224.244-.31.013-.495.02-.561.02a3.429 3.429 0 0 1-1.662-.327 2.342 2.342 0 0 1-.946-.91 6.32 6.32 0 0 0-1.421.561 6.12 6.12 0 0 1-1.217.521c-.423.12-.86.179-1.3.175a1.584 1.584 0 0 1-1.019-.455 2.188 2.188 0 0 1-.528-1.708c.013-.343.356-.841 1.036-1.494m1.844.277c-.38.283-.691.65-.907 1.072a.565.565 0 0 0 .115.722 1.05 1.05 0 0 0 .986.04 8.765 8.765 0 0 0 1.4-.587c.453-.234.89-.5 1.306-.795.303-.177.541-.448.676-.772a1.114 1.114 0 0 0-.066-.745c-.112-.257-.369-.366-.775-.327a3.52 3.52 0 0 0-1.312.425c-.507.27-.984.593-1.421.966" fill="#887F76"></path><path d="M70.579 135.632c.144-.382.321-.75.531-1.1a8.628 8.628 0 0 1 1.553-1.682 11.041 11.041 0 0 0 1.8-1.972c-.59.079-.986.122-1.187.129-.2.006-.32-.115-.356-.36a.518.518 0 0 1 .172-.541c.28-.154.591-.243.91-.26.448-.059.92-.132 1.408-.221.867-.815 1.572-1.465 2.117-1.952.545-.487 1.13-1.015 1.758-1.586a16.247 16.247 0 0 1 1.777-1.418 2.895 2.895 0 0 1 1.461-.59c.244.323.016.795-.686 1.421a42.208 42.208 0 0 0-1.672 1.553c-.412.412-.808.808-1.187 1.19-.379.382-.815.834-1.306 1.362a271.431 271.431 0 0 1 6.685-.73c1.312-.126 2.638-.228 3.971-.32a78.274 78.274 0 0 1 3.924-.172 93.968 93.968 0 0 1 4 .01c1.385.033 2.513.089 3.38.171.76.041 1.487.321 2.078.8a3.311 3.311 0 0 1-1.448.165c-.439-.056-.91-.1-1.411-.135s-1.1-.036-1.807-.02c-.707.016-1.553.046-2.549.079s-2.064.053-3.2.066a48.879 48.879 0 0 0-3.45.165c-1.168.096-2.272.2-3.324.31-1.052.11-2.14.208-3.275.3-1.135.092-1.939.152-2.414.181-.475.029-.871.069-1.181.109a2.4 2.4 0 0 0-.762.2 3.004 3.004 0 0 0-.64.435 16.62 16.62 0 0 0-.841.8c-.333.343-.729.785-1.187 1.332a52.979 52.979 0 0 1-1.217 1.411 4.42 4.42 0 0 0-.762 1.1 1.083 1.083 0 0 0-.059.907.829.829 0 0 0 .656.485 4.582 4.582 0 0 0 1.857-.386c.677-.212 1.33-.494 1.949-.841.276-.186.572-.342.881-.465a.379.379 0 0 1 .465.125c.109.148-.049.4-.475.765a8.142 8.142 0 0 1-1.141.831c-.369.209-.752.39-1.148.541a6.51 6.51 0 0 1-1.461.366 6.603 6.603 0 0 1-1.544.059 2.71 2.71 0 0 1-1.151-.34 1.243 1.243 0 0 1-.551-.686 1.912 1.912 0 0 1-.155-.7.126.126 0 0 1 .02-.056 2.58 2.58 0 0 1 .195-.851" fill="#887F76"></path></g></svg>