<svg xmlns="http://www.w3.org/2000/svg" width="250" height="160" viewBox="0 0 250 160" fill="none"><path d="M87.594 133.892a.387.387 0 0 1-.216-.072.226.226 0 0 1-.108-.198c0-.204.114-.336.342-.396.456-.096.768-.216.936-.36.168-.144.252-.402.252-.774v-8.172c0-.384-.078-.654-.234-.81-.144-.168-.426-.3-.846-.396-.144-.036-.246-.09-.306-.162a.387.387 0 0 1-.072-.216c0-.084.03-.15.09-.198a.407.407 0 0 1 .27-.09 22.598 22.598 0 0 1 1.782.072c.3.012.57.018.81.018h3.348c.516 0 .984-.03 1.404-.09.432-.072.78-.108 1.044-.108a.54.54 0 0 1 .288.09c.108.048.168.144.18.288a22.224 22.224 0 0 1 .072 1.818c.012.276.018.522.018.738 0 .24-.078.36-.234.36a.456.456 0 0 1-.216-.072.339.339 0 0 1-.162-.234 6.327 6.327 0 0 0-.288-.846 1.742 1.742 0 0 0-.396-.648 1.406 1.406 0 0 0-.558-.342c-.204-.084-.462-.126-.774-.126h-1.134c-.3 0-.546.072-.738.216-.192.144-.288.348-.288.612v3.204c0 .156.042.27.126.342.084.06.198.09.342.09h1.674c.312 0 .534-.096.666-.288.144-.192.27-.42.378-.684a.614.614 0 0 1 .162-.234.338.338 0 0 1 .216-.09c.06 0 .114.036.162.108.048.072.066.174.054.306-.024.264-.048.516-.072.756-.012.228-.018.432-.018.612 0 .24.006.438.018.594l.054.648c.024.18.012.312-.036.396-.036.072-.084.108-.144.108-.084 0-.168-.042-.252-.126a.716.716 0 0 1-.18-.306c-.108-.372-.234-.624-.378-.756-.132-.132-.312-.198-.54-.198H92.22c-.132 0-.234.036-.306.108a.465.465 0 0 0-.09.306c0 .54.006 1.104.018 1.692.012.588.018 1.152.018 1.692 0 .372.102.63.306.774.216.144.582.27 1.098.378a.5.5 0 0 1 .252.126c.06.048.09.132.09.252 0 .084-.024.15-.072.198-.048.048-.12.072-.216.072-.252 0-.57-.006-.954-.018l-1.152-.036a29.517 29.517 0 0 0-.918-.018c-.24 0-.522.006-.846.018l-.972.036c-.324.024-.618.036-.882.036ZM97.597 133.892c-.12 0-.21-.024-.27-.072a.24.24 0 0 1-.09-.198c0-.096.036-.168.108-.216a1.03 1.03 0 0 1 .306-.162c.18-.06.336-.12.468-.18.132-.072.198-.24.198-.504v-8.55c0-.324-.042-.606-.126-.846-.072-.24-.258-.39-.558-.45-.132-.024-.198-.12-.198-.288 0-.156.06-.246.18-.27.3-.06.642-.15 1.026-.27a29.1 29.1 0 0 0 1.116-.396c.36-.132.63-.228.81-.288a.863.863 0 0 1 .252-.054c.084 0 .138.024.162.072a.357.357 0 0 1 .036.162c0 .084-.012.228-.036.432-.024.192-.042.372-.054.54v10.17c0 .264.066.432.198.504.132.06.288.12.468.18.132.048.234.102.306.162.072.048.108.12.108.216a.24.24 0 0 1-.09.198c-.06.048-.15.072-.27.072-.24 0-.48-.006-.72-.018-.24-.012-.474-.018-.702-.018a11.363 11.363 0 0 0-1.296 0l-.648.036a6.2 6.2 0 0 1-.684.036ZM106.208 134.09c-.732 0-1.392-.162-1.98-.486a3.7 3.7 0 0 1-1.404-1.35c-.348-.576-.522-1.23-.522-1.962 0-.588.108-1.14.324-1.656.228-.528.534-.99.918-1.386a4.476 4.476 0 0 1 1.368-.936 4.222 4.222 0 0 1 1.692-.342c.756 0 1.434.174 2.034.522.612.348 1.098.81 1.458 1.386.36.576.54 1.206.54 1.89 0 .78-.168 1.5-.504 2.16a3.749 3.749 0 0 1-1.476 1.584c-.648.384-1.464.576-2.448.576Zm.342-.846c.216 0 .402-.042.558-.126.156-.096.288-.228.396-.396.144-.24.246-.57.306-.99.06-.42.09-.93.09-1.53 0-.672-.066-1.26-.198-1.764s-.318-.9-.558-1.188c-.228-.288-.498-.432-.81-.432-.156 0-.3.03-.432.09a.923.923 0 0 0-.342.216c-.204.216-.348.552-.432 1.008-.072.444-.108 1.014-.108 1.71 0 .564.066 1.11.198 1.638.132.516.312.942.54 1.278.24.324.504.486.792.486ZM111.732 133.892a.504.504 0 0 1-.252-.072.226.226 0 0 1-.108-.198.29.29 0 0 1 .108-.234c.084-.06.186-.108.306-.144.276-.084.456-.168.54-.252.084-.096.126-.24.126-.432v-4.194c0-.24-.03-.432-.09-.576-.06-.144-.192-.246-.396-.306a1.26 1.26 0 0 1-.18-.09c-.048-.048-.072-.132-.072-.252 0-.18.078-.288.234-.324.396-.096.834-.216 1.314-.36.492-.156.918-.318 1.278-.486.06-.036.138-.078.234-.126a.553.553 0 0 1 .216-.072c.12 0 .18.072.18.216 0 .06-.006.186-.018.378 0 .192-.006.39-.018.594a7.822 7.822 0 0 0-.018.468c0 .12.024.18.072.18.18-.252.39-.504.63-.756.252-.252.522-.462.81-.63.3-.168.6-.252.9-.252.444 0 .756.084.936.252.18.168.27.384.27.648 0 .192-.054.408-.162.648a2.107 2.107 0 0 1-.414.594c-.168.168-.348.252-.54.252a.914.914 0 0 1-.378-.09c-.12-.06-.246-.12-.378-.18-.12-.06-.24-.114-.36-.162a.738.738 0 0 0-.324-.09c-.312 0-.576.12-.792.36-.216.228-.324.69-.324 1.386v2.772c0 .264.072.456.216.576.144.12.384.228.72.324a.644.644 0 0 1 .288.144c.072.048.108.12.108.216 0 .18-.096.27-.288.27-.36 0-.756-.018-1.188-.054a20.525 20.525 0 0 0-1.116-.036c-.204 0-.42.006-.648.018l-.702.036c-.24.024-.48.036-.72.036ZM121.157 134.09a1.97 1.97 0 0 1-.954-.234 1.737 1.737 0 0 1-.684-.594 1.578 1.578 0 0 1-.252-.864c0-.42.132-.774.396-1.062.276-.288.672-.546 1.188-.774l1.548-.684c.24-.108.39-.204.45-.288.06-.096.09-.258.09-.486l.018-.99c.012-.348-.042-.612-.162-.792-.12-.192-.306-.288-.558-.288-.144 0-.294.036-.45.108a.84.84 0 0 0-.342.216.396.396 0 0 0-.072.162.916.916 0 0 0-.018.18c0 .072.006.168.018.288.012.108.018.198.018.27 0 .084-.102.186-.306.306-.204.108-.438.21-.702.306a2.311 2.311 0 0 1-.684.126.345.345 0 0 1-.252-.108.513.513 0 0 1-.09-.306c0-.192.066-.378.198-.558.132-.18.354-.396.666-.648a7.009 7.009 0 0 1 2.196-1.188c.372-.132.69-.198.954-.198.684 0 1.23.222 1.638.666.408.432.6 1.014.576 1.746l-.09 3.492c-.012.276.03.516.126.72.108.192.24.288.396.288a.823.823 0 0 0 .576-.234c.036-.036.072-.054.108-.054.06 0 .108.024.144.072a.171.171 0 0 1 .072.144c0 .144-.12.336-.36.576a2.25 2.25 0 0 1-.738.504c-.264.12-.54.18-.828.18-.696 0-1.278-.348-1.746-1.044h-.036c-.396.372-.75.636-1.062.792a2.058 2.058 0 0 1-.99.252Zm1.116-1.242a.601.601 0 0 0 .27-.054.553.553 0 0 0 .198-.18.406.406 0 0 0 .072-.18.736.736 0 0 0 .036-.234l.054-1.386c0-.108-.018-.174-.054-.198a.173.173 0 0 0-.126-.054.296.296 0 0 0-.09.018.175.175 0 0 0-.09.036c-.288.156-.51.318-.666.486-.144.156-.216.444-.216.864 0 .348.066.582.198.702.144.12.282.18.414.18ZM127.462 133.892c-.12 0-.21-.024-.27-.072a.24.24 0 0 1-.09-.198c0-.096.036-.168.108-.216a1.03 1.03 0 0 1 .306-.162c.18-.06.336-.12.468-.18.132-.072.198-.24.198-.504v-8.55c0-.324-.042-.606-.126-.846-.072-.24-.258-.39-.558-.45-.132-.024-.198-.12-.198-.288 0-.156.06-.246.18-.27.3-.06.642-.15 1.026-.27a29.1 29.1 0 0 0 1.116-.396c.36-.132.63-.228.81-.288a.863.863 0 0 1 .252-.054c.084 0 .138.024.162.072a.357.357 0 0 1 .036.162c0 .084-.012.228-.036.432-.024.192-.042.372-.054.54v10.17c0 .264.066.432.198.504.132.06.288.12.468.18.132.048.234.102.306.162.072.048.108.12.108.216a.24.24 0 0 1-.09.198c-.06.048-.15.072-.27.072-.24 0-.48-.006-.72-.018-.24-.012-.474-.018-.702-.018a11.363 11.363 0 0 0-1.296 0l-.648.036a6.2 6.2 0 0 1-.684.036ZM140.549 134.09c-.516 0-1.02-.06-1.512-.18a4.484 4.484 0 0 1-1.386-.558 3.629 3.629 0 0 1-.252-.198.991.991 0 0 1-.162-.252 4.89 4.89 0 0 1-.27-1.242 10.731 10.731 0 0 1-.036-1.53c0-.084.03-.144.09-.18a.557.557 0 0 1 .252-.054c.132 0 .216.018.252.054a.588.588 0 0 1 .144.18c.276.888.678 1.626 1.206 2.214.54.588 1.176.882 1.908.882.372 0 .672-.084.9-.252.24-.18.414-.396.522-.648.12-.264.18-.516.18-.756 0-.36-.072-.666-.216-.918-.144-.252-.366-.486-.666-.702-.3-.216-.69-.45-1.17-.702a18.638 18.638 0 0 1-1.476-.9 4.174 4.174 0 0 1-1.152-1.188c-.3-.468-.45-1.056-.45-1.764 0-.72.192-1.338.576-1.854a3.888 3.888 0 0 1 1.566-1.224 5.342 5.342 0 0 1 2.16-.432c.456 0 .9.048 1.332.144.444.096.798.198 1.062.306.156.06.264.126.324.198.06.06.12.192.18.396.06.252.102.564.126.936.036.36.054.774.054 1.242 0 .156-.114.234-.342.234a.639.639 0 0 1-.288-.072.4.4 0 0 1-.162-.216c-.192-.744-.492-1.302-.9-1.674-.408-.384-.906-.576-1.494-.576-.372 0-.678.06-.918.18-.228.12-.402.294-.522.522-.108.216-.162.492-.162.828 0 .264.096.516.288.756.192.24.468.486.828.738.372.24.804.51 1.296.81.696.408 1.236.804 1.62 1.188.384.384.654.786.81 1.206.156.408.234.876.234 1.404 0 .852-.186 1.548-.558 2.088-.36.54-.87.936-1.53 1.188-.648.252-1.41.378-2.286.378ZM146.183 138.464a.504.504 0 0 1-.252-.072.226.226 0 0 1-.108-.198.29.29 0 0 1 .108-.234c.084-.06.186-.108.306-.144.276-.084.456-.174.54-.27.084-.084.126-.222.126-.414v-8.514c0-.156-.03-.3-.09-.432a.975.975 0 0 0-.252-.36.754.754 0 0 0-.396-.18.63.63 0 0 1-.18-.09c-.036-.048-.054-.132-.054-.252 0-.108.018-.186.054-.234a.314.314 0 0 1 .162-.09c.408-.096.87-.222 1.386-.378a9.652 9.652 0 0 0 1.314-.522c.06-.024.12-.054.18-.09a.35.35 0 0 1 .18-.072c.084 0 .132.024.144.072a.357.357 0 0 1 .036.162c0 .096-.018.252-.054.468a5.28 5.28 0 0 0-.036.576c0 .12.012.192.036.216.12-.12.33-.282.63-.486a5.86 5.86 0 0 1 1.062-.54c.396-.168.78-.252 1.152-.252.648 0 1.2.174 1.656.522.456.348.804.792 1.044 1.332s.36 1.104.36 1.692c0 .564-.108 1.116-.324 1.656a5.008 5.008 0 0 1-.9 1.44 4.406 4.406 0 0 1-1.332 1.026 3.611 3.611 0 0 1-1.638.378c-.12 0-.27-.018-.45-.054a2.99 2.99 0 0 1-.522-.126 4.977 4.977 0 0 1-.504-.162c-.012 0-.024.006-.036.018a.21.21 0 0 0-.036.054v3.024c0 .168.03.306.09.414a.844.844 0 0 0 .306.27c.144.072.324.144.54.216a.817.817 0 0 1 .288.126.29.29 0 0 1 .108.234c0 .072-.03.132-.09.18a.24.24 0 0 1-.198.09c-.36 0-.756-.018-1.188-.054a19.57 19.57 0 0 0-1.098-.036c-.204 0-.42.006-.648.018l-.702.036c-.24.024-.48.036-.72.036Zm4.734-5.184c.12 0 .264-.048.432-.144.18-.096.354-.258.522-.486.168-.228.306-.528.414-.9.12-.384.18-.852.18-1.404 0-.648-.06-1.164-.18-1.548-.12-.384-.27-.672-.45-.864-.168-.192-.342-.318-.522-.378s-.336-.09-.468-.09c-.204 0-.414.048-.63.144a1.52 1.52 0 0 0-.504.324c-.132.12-.198.234-.198.342v.522c0 .276-.006.594-.018.954v1.548c0 .24.048.516.144.828.108.312.264.582.468.81.216.228.486.342.81.342ZM157.966 134.09a1.97 1.97 0 0 1-.954-.234 1.737 1.737 0 0 1-.684-.594 1.578 1.578 0 0 1-.252-.864c0-.42.132-.774.396-1.062.276-.288.672-.546 1.188-.774l1.548-.684c.24-.108.39-.204.45-.288.06-.096.09-.258.09-.486l.018-.99c.012-.348-.042-.612-.162-.792-.12-.192-.306-.288-.558-.288-.144 0-.294.036-.45.108a.84.84 0 0 0-.342.216.396.396 0 0 0-.072.162.916.916 0 0 0-.018.18c0 .072.006.168.018.288.012.108.018.198.018.27 0 .084-.102.186-.306.306-.204.108-.438.21-.702.306a2.311 2.311 0 0 1-.684.126.345.345 0 0 1-.252-.108.513.513 0 0 1-.09-.306c0-.192.066-.378.198-.558.132-.18.354-.396.666-.648a7.009 7.009 0 0 1 2.196-1.188c.372-.132.69-.198.954-.198.684 0 1.23.222 1.638.666.408.432.6 1.014.576 1.746l-.09 3.492c-.012.276.03.516.126.72.108.192.24.288.396.288a.823.823 0 0 0 .576-.234c.036-.036.072-.054.108-.054.06 0 .108.024.144.072a.171.171 0 0 1 .072.144c0 .144-.12.336-.36.576a2.25 2.25 0 0 1-.738.504c-.264.12-.54.18-.828.18-.696 0-1.278-.348-1.746-1.044h-.036c-.396.372-.75.636-1.062.792a2.058 2.058 0 0 1-.99.252Zm1.116-1.242a.601.601 0 0 0 .27-.054.553.553 0 0 0 .198-.18.406.406 0 0 0 .072-.18.736.736 0 0 0 .036-.234l.054-1.386c0-.108-.018-.174-.054-.198a.173.173 0 0 0-.126-.054.296.296 0 0 0-.09.018.175.175 0 0 0-.09.036c-.288.156-.51.318-.666.486-.144.156-.216.444-.216.864 0 .348.066.582.198.702.144.12.282.18.414.18ZM93.248 142.534v2.24H90.64v-2.24h-.856v5.28h.856v-2.304h2.608v2.304h.864v-5.28h-.864ZM99.076 145.694c0-1.16-.656-1.96-1.856-1.96-1.248 0-1.952.776-1.952 2.08s.744 2.08 2.008 2.08c.88 0 1.432-.336 1.72-.928l-.712-.296c-.128.352-.48.544-1.008.544-.648 0-1.064-.376-1.16-1.08h2.928a3.32 3.32 0 0 0 .032-.44Zm-1.856-1.28c.6 0 .976.392 1.056 1.064h-2.152c.088-.688.464-1.064 1.096-1.064ZM103.604 147.254c-.216 0-.296-.096-.296-.296v-1.808c0-.96-.688-1.416-1.688-1.416-.872 0-1.488.408-1.68 1.04l.664.352c.168-.504.536-.72 1.032-.72.52 0 .816.312.816.792v.208l-1.016.184c-1.048.184-1.56.64-1.56 1.256 0 .696.552 1.048 1.304 1.048.592 0 1.104-.216 1.352-.6.088.44.384.6.816.6.2 0 .368-.04.496-.096l.056-.576a1.159 1.159 0 0 1-.296.032Zm-2.24-.008c-.376 0-.6-.16-.6-.456 0-.32.272-.504.816-.608l.872-.176v.48c0 .48-.552.76-1.088.76ZM105.543 142.014h-.856v4.752c0 .776.328 1.128 1.04 1.128.232 0 .488-.048.664-.136l.096-.688c-.208.08-.328.104-.528.104-.32 0-.416-.136-.416-.528v-4.632ZM109.447 146.926a.913.913 0 0 1-.648.256c-.352 0-.584-.176-.584-.568v-2.128h1.4v-.672h-1.4v-1.176l-.856.24v.936h-.76v.672h.76v2.272c.008.824.536 1.136 1.224 1.136.432 0 .808-.128 1.064-.344l-.2-.624ZM112.628 143.734c-.56 0-1.032.224-1.296.72v-2.44h-.856v5.8h.856v-2.112c0-.92.56-1.264 1.088-1.264.488 0 .856.264.856 1.056v2.32h.856v-2.592c0-1-.656-1.488-1.504-1.488ZM122.423 147.27c-.368.016-.6-.064-.992-.448a2.8 2.8 0 0 0 .512-1.76l-.632-.048c.032.552-.08 1-.28 1.368-.176-.2-.376-.44-.616-.728-.192-.224-.352-.424-.496-.592.864-.448 1.08-.904 1.08-1.472 0-.76-.576-1.136-1.328-1.136-.904 0-1.352.616-1.352 1.224 0 .4.144.704.592 1.264-.912.424-1.216.968-1.216 1.56 0 .832.712 1.392 1.736 1.392.648 0 1.176-.224 1.56-.576.528.488.832.576 1.28.576l.152-.624Zm-2.752-4.168c.384 0 .608.168.608.52 0 .336-.072.64-.704 1.008-.416-.52-.488-.688-.488-.944 0-.32.192-.584.584-.584Zm-1.208 3.344c0-.352.144-.632.824-1.048.176.216.384.456.624.736.256.304.48.552.672.76a1.85 1.85 0 0 1-1.128.368c-.544 0-.992-.336-.992-.816ZM128.452 144.646l.264-1.216h.008l.264 1.216.84 3.168h1.008l1.544-5.28h-.88l-1.16 4.608-1.168-4.608h-.88l-1.16 4.6-1.152-4.6h-.928l1.552 5.28h1.016l.832-3.168ZM136.521 145.694c0-1.16-.656-1.96-1.856-1.96-1.248 0-1.952.776-1.952 2.08s.744 2.08 2.008 2.08c.88 0 1.432-.336 1.72-.928l-.712-.296c-.128.352-.48.544-1.008.544-.648 0-1.064-.376-1.16-1.08h2.928a3.32 3.32 0 0 0 .032-.44Zm-1.856-1.28c.6 0 .976.392 1.056 1.064h-2.152c.088-.688.464-1.064 1.096-1.064ZM138.426 142.014h-.856v4.752c0 .776.328 1.128 1.04 1.128.232 0 .488-.048.664-.136l.096-.688c-.208.08-.328.104-.528.104-.32 0-.416-.136-.416-.528v-4.632ZM140.918 142.014h-.856v4.752c0 .776.328 1.128 1.04 1.128.232 0 .488-.048.664-.136l.096-.688c-.208.08-.328.104-.528.104-.32 0-.416-.136-.416-.528v-4.632ZM144.73 143.734c-.576 0-1.08.224-1.352.752l-.04-.672h-.76v4h.856v-2.12c0-.92.56-1.256 1.088-1.256.488 0 .856.264.856 1.056v2.32h.856v-2.592c0-1-.656-1.488-1.504-1.488ZM151.107 145.694c0-1.16-.656-1.96-1.856-1.96-1.248 0-1.952.776-1.952 2.08s.744 2.08 2.008 2.08c.88 0 1.432-.336 1.72-.928l-.712-.296c-.128.352-.48.544-1.008.544-.648 0-1.064-.376-1.16-1.08h2.928a3.32 3.32 0 0 0 .032-.44Zm-1.856-1.28c.6 0 .976.392 1.056 1.064h-2.152c.088-.688.464-1.064 1.096-1.064ZM153.628 147.894c1.104 0 1.744-.504 1.744-1.208 0-.664-.408-1.008-1.552-1.216-.752-.136-.984-.288-.984-.576 0-.248.336-.488.832-.488.52 0 .864.2 1.064.68l.608-.448c-.288-.616-.792-.904-1.68-.904-1.072 0-1.68.592-1.68 1.24 0 .672.416 1.016 1.608 1.24.696.136.928.28.928.528 0 .272-.288.48-.856.48-.56 0-1.032-.184-1.24-.664l-.576.496c.336.584 1.008.84 1.784.84ZM157.862 147.894c1.104 0 1.744-.504 1.744-1.208 0-.664-.408-1.008-1.552-1.216-.752-.136-.984-.288-.984-.576 0-.248.336-.488.832-.488.52 0 .864.2 1.064.68l.608-.448c-.288-.616-.792-.904-1.68-.904-1.072 0-1.68.592-1.68 1.24 0 .672.416 1.016 1.608 1.24.696.136.928.28.928.528 0 .272-.288.48-.856.48-.56 0-1.032-.184-1.24-.664l-.576.496c.336.584 1.008.84 1.784.84Z" fill="#000"></path><path d="M91.651 24.812a47.948 47.948 0 0 1 74.456 6.4 47.945 47.945 0 0 1 8.144 26.938c0 .135 0-.134 0 0s0-.136 0 0a47.945 47.945 0 0 1-80.72 35.2" stroke="#000" stroke-width="3" stroke-linecap="round" stroke-linejoin="round"></path><path d="M156.262 35.156a37.63 37.63 0 0 1 8 23.232c0 .106 0-.1 0 0s0-.106 0 0a37.768 37.768 0 0 1-16.465 31.186M129.832 85.259c6.071 5.694 10.523 9.872 10.523 9.872M103.797 29.496l36.372 34.117M154.217 53.14l-43.893 41.175M148.97 31.156l-20.2 18.949M98.017 63.224c-.143.17.145-.17 0 0-28.257 33.03 33.03 28.257 0 0Zm0 0c-33.03-28.257-28.257 33.03 0 0Zm0 0c.143-.168-.145.166 0 0Zm0 0c.145-.166-.145.169 0 0Zm0 0c28.257-33.03-33.03-28.257 0 0Zm0 0c33.031 28.257 28.257-33.03 0 0Zm0 0c-.143.168.145-.166 0 0Z" stroke="#000" stroke-width="3" stroke-linecap="round" stroke-linejoin="round"></path></svg>