<svg xmlns="http://www.w3.org/2000/svg" width="250" height="160" viewBox="0 0 250 160"><g fill="#343434"><path d="M138.51 32.673a5.534 5.534 0 1 0 8.956 4.945l-.188.1c-3.566 1.845-6.584 2.173-8.207.55-1.209-1.208-1.335-3.189-.56-5.593m17.182-1.052 4.715 8.165 6.557 11.358a11.735 11.735 0 0 1 0 12.017l-6.557 11.358-17.9 31a7.255 7.255 0 0 1-1.282 1.628 2.846 2.846 0 0 1-4.806-2.063v-2.83a3.914 3.914 0 0 1 1.19-2.866 3.705 3.705 0 0 0 0-5.318 3.908 3.908 0 0 1-1.188-2.864v-7.48a3.968 3.968 0 0 1 2.29-3.648 3.789 3.789 0 0 0 0-6.954 3.97 3.97 0 0 1-2.29-3.648v-.063a3.273 3.273 0 0 0-3.267-3.266h-.214a3.01 3.01 0 0 0-3.005 3c0 5.468 2.007 8.323 2.007 11.988 0 3.628-1.19 6.568-2.66 6.568s-2.662-2.94-2.662-6.568c0-3.664 2.007-6.52 2.007-11.988a3.011 3.011 0 0 0-3.007-3h-14.68a3.273 3.273 0 0 0-3.268 3.266v8.556a3.969 3.969 0 0 1-2.29 3.648 3.789 3.789 0 0 0 0 6.954 3.969 3.969 0 0 1 2.29 3.573.95.95 0 0 1-1.423.838l-21.236-12.26a7.288 7.288 0 0 1-2.662-9.937l17.9-31 6.556-11.356a11.735 11.735 0 0 1 10.407-6.009h26.23a12.935 12.935 0 0 1 1.5.086c.783-.9 1.624-1.8 2.515-2.687a43.825 43.825 0 0 1 10.235-7.837c3.566-1.845 6.585-2.174 8.208-.55s1.294 4.645-.552 8.214a43.85 43.85 0 0 1-7.83 10.231q-.909.906-1.822 1.742m-33.646 11.9q6.485 6.613 3.267 18.3c11.414-12.823 7.222-29.97-8.494-36.589 1.742 13.4-14.968 26.633 1.96 36.59q-2.98-10.23 3.266-18.3m33.228-15.873a40.794 40.794 0 0 0 7.27-9.456c1.188-2.3 1.653-3.987 1.117-4.523s-2.229-.07-4.529 1.12a40.713 40.713 0 0 0-9.45 7.262c-.458.457-.9.917-1.329 1.376a11.622 11.622 0 0 1 4.551 3.6 38.127 38.127 0 0 1-7.437 5.692l.05.041a5.586 5.586 0 0 0-.79-.552 5.513 5.513 0 0 0-2.3-.722l-.014.026c-1.188 2.3-1.654 3.987-1.116 4.523s2.228.07 4.53-1.119a44.988 44.988 0 0 0 9.448-7.263M219.254 119.57a5.647 5.647 0 0 0-2.91.746 5.073 5.073 0 0 0-1.982 2.14 7.779 7.779 0 0 0 0 6.49 5.076 5.076 0 0 0 1.982 2.141 5.659 5.659 0 0 0 2.91.746 5.546 5.546 0 0 0 2.873-.746 5.11 5.11 0 0 0 1.972-2.14 7.779 7.779 0 0 0 0-6.492 5.106 5.106 0 0 0-1.972-2.139 5.535 5.535 0 0 0-2.873-.746m0-2.549a8.372 8.372 0 0 1 4.268 1.106 7.9 7.9 0 0 1 3.005 3.09 9.733 9.733 0 0 1 0 8.968 7.986 7.986 0 0 1-3.005 3.1 8.751 8.751 0 0 1-8.559 0 8.075 8.075 0 0 1-3.018-3.1 9.651 9.651 0 0 1 0-8.968 7.986 7.986 0 0 1 3.018-3.09 8.41 8.41 0 0 1 4.291-1.106m-13.809.481v16.71h-2.766v-12.525l-4.832 12.525h-2.4l-4.857-12.525v12.525h-2.74V117.5h3.317l5.53 13.344 5.43-13.344 3.318.002zm-31.386 2.068a5.645 5.645 0 0 0-2.908.746 5.075 5.075 0 0 0-1.984 2.14 7.78 7.78 0 0 0 0 6.49 5.079 5.079 0 0 0 1.984 2.141 5.657 5.657 0 0 0 2.908.746 5.548 5.548 0 0 0 2.875-.746 5.107 5.107 0 0 0 1.971-2.14 7.784 7.784 0 0 0 0-6.492 5.1 5.1 0 0 0-1.97-2.139 5.536 5.536 0 0 0-2.876-.746m0-2.549a8.374 8.374 0 0 1 4.27 1.106 7.9 7.9 0 0 1 3 3.09 9.736 9.736 0 0 1 0 8.968 7.983 7.983 0 0 1-3 3.1 8.751 8.751 0 0 1-8.56 0 8.069 8.069 0 0 1-3.019-3.1 9.654 9.654 0 0 1 0-8.968 7.98 7.98 0 0 1 3.018-3.09 8.41 8.41 0 0 1 4.29-1.106m-22.152 8.464h3.03q3.317 0 3.317-2.933a2.9 2.9 0 0 0-.8-2.177 3.5 3.5 0 0 0-2.513-.78h-3.03l-.004 5.89zm6.18 8.726-4.232-6.779h-1.947v6.78h-2.74v-16.975h5.986a6.205 6.205 0 0 1 4.413 1.418 4.923 4.923 0 0 1 1.5 3.751 4.776 4.776 0 0 1-1.118 3.27 5.324 5.324 0 0 1-3.233 1.635l4.448 6.9h-3.078zm-20.157-8.823q3.391 0 3.39-2.933a2.87 2.87 0 0 0-.806-2.2 3.688 3.688 0 0 0-2.584-.757h-2.74v5.89h2.74zm-2.74 2.236v6.587h-2.743v-16.974h5.771a6.213 6.213 0 0 1 4.412 1.395 5 5 0 0 1 1.478 3.823 4.869 4.869 0 0 1-1.515 3.787 6.276 6.276 0 0 1-4.375 1.382h-3.029zm-14.049-7.14v3.558h5.745v3.1h-5.745v3.774h6.467v3.294h-10.58v-17h10.58v3.27l-6.467.003zm-13.76 10.58h5.48v3.148h-9.593v-17h4.112v13.851zm-17.946-.53a5.2 5.2 0 0 0 3.74-1.275 5.479 5.479 0 0 0 0-7.165 5.2 5.2 0 0 0-3.74-1.275h-1.947v9.714l1.947.001zm9.233-4.857a9.008 9.008 0 0 1-1.07 4.435 7.5 7.5 0 0 1-3.078 3.018 9.822 9.822 0 0 1-4.725 1.081H83.38v-17h6.42a9.965 9.965 0 0 1 4.736 1.058 7.378 7.378 0 0 1 3.065 2.98 8.948 8.948 0 0 1 1.071 4.425m-20.4 8.534H74.16l-6.88-10.43v10.433h-4.107v-17h4.107l6.876 10.53v-10.53h4.111l.005 16.997zm-25.444-6.227-2.117-6.25-2.139 6.25h4.256zm1.057 3.125h-6.372l-1.058 3.1h-4.328l6.227-16.877h4.737l6.227 16.877h-4.375l-1.058-3.1zm-23.234-14.06a8.312 8.312 0 0 1 5.374 1.707 7.818 7.818 0 0 1 2.753 4.617h-4.35a3.98 3.98 0 0 0-1.48-1.852 4.133 4.133 0 0 0-2.368-.672 3.6 3.6 0 0 0-2.908 1.322 6.173 6.173 0 0 0 0 7.056 3.616 3.616 0 0 0 2.908 1.311 4.134 4.134 0 0 0 2.367-.674 4 4 0 0 0 1.48-1.827h4.353a7.857 7.857 0 0 1-2.753 4.6 8.271 8.271 0 0 1-5.374 1.72 8.476 8.476 0 0 1-4.35-1.094 7.418 7.418 0 0 1-2.9-3.065 10.392 10.392 0 0 1 0-8.992 7.424 7.424 0 0 1 2.9-3.067 8.491 8.491 0 0 1 4.35-1.093M184.065 141.886v2.661h3.23v1.094h-3.23v2.722h3.6v1.156h-5.023v-8.776h5.023v1.143h-3.6zm-12.45 3.121h1.566q1.714 0 1.716-1.516a1.494 1.494 0 0 0-.417-1.125 1.8 1.8 0 0 0-1.3-.4h-1.566l.001 3.041zm3.194 4.513-2.187-3.506h-1.007v3.506h-1.417v-8.776h3.094a3.2 3.2 0 0 1 2.281.734 2.542 2.542 0 0 1 .776 1.938 2.473 2.473 0 0 1-.577 1.691 2.752 2.752 0 0 1-1.672.845l2.3 3.568h-1.59zm-14.612-7.633v2.661h3.232v1.094h-3.232v2.722h3.608v1.156h-5.023v-8.776h5.023v1.143h-3.608zm-8.146-1.143v8.776h-1.43v-3.94h-4.127v3.94h-1.417v-8.776h1.417v3.68h4.127v-3.68h1.43zm-16.615 8.776h-1.417l-4.262-6.477v6.477h-1.419v-8.764h1.42l4.261 6.5v-6.5h1.417v8.764zm-15.753-3-1.455-4.1-1.455 4.1h2.91zm.4 1.094h-3.708l-.67 1.9h-1.517l3.232-8.64h1.63l3.218 8.64h-1.516l-.669-1.9zm-15.843-6.949a4.271 4.271 0 0 1 2.611.771 3.63 3.63 0 0 1 1.38 2.1h-1.492a2.39 2.39 0 0 0-.939-1.13 2.78 2.78 0 0 0-1.549-.424 2.847 2.847 0 0 0-1.473.385 2.664 2.664 0 0 0-1.02 1.094 3.574 3.574 0 0 0-.366 1.666 3.712 3.712 0 0 0 .374 1.727 2.589 2.589 0 0 0 1.05 1.1 3.166 3.166 0 0 0 1.572.38 2.77 2.77 0 0 0 1.877-.679 2.87 2.87 0 0 0 .945-1.858h-3.22v-1.045h4.415v1.355a4.207 4.207 0 0 1-.689 1.76 3.953 3.953 0 0 1-1.43 1.261 4.267 4.267 0 0 1-2.034.472 4.419 4.419 0 0 1-2.263-.572 3.9 3.9 0 0 1-1.516-1.585 5.3 5.3 0 0 1 0-4.637 3.881 3.881 0 0 1 1.511-1.578 4.42 4.42 0 0 1 2.256-.566m-14.786 1.281a2.915 2.915 0 0 0-1.5.385 2.625 2.625 0 0 0-1.026 1.106 4.03 4.03 0 0 0 0 3.357 2.625 2.625 0 0 0 1.026 1.106 2.915 2.915 0 0 0 1.5.385 2.855 2.855 0 0 0 1.486-.385 2.637 2.637 0 0 0 1.02-1.106 4.027 4.027 0 0 0 0-3.357 2.637 2.637 0 0 0-1.02-1.106 2.856 2.856 0 0 0-1.486-.385m0-1.317a4.33 4.33 0 0 1 2.208.571 4.083 4.083 0 0 1 1.553 1.6 5.035 5.035 0 0 1 0 4.637 4.127 4.127 0 0 1-1.553 1.6 4.521 4.521 0 0 1-4.426 0 4.168 4.168 0 0 1-1.56-1.6 4.991 4.991 0 0 1 0-4.637 4.123 4.123 0 0 1 1.56-1.6 4.35 4.35 0 0 1 2.22-.57m-13.22 7.78h3.033v1.106h-4.45v-8.776h1.417v7.67zm-7.85-1.23a2.4 2.4 0 0 1-.31 1.2 2.256 2.256 0 0 1-.945.887 3.289 3.289 0 0 1-1.555.336 3.9 3.9 0 0 1-1.6-.317 2.79 2.79 0 0 1-1.13-.889 2.52 2.52 0 0 1-.484-1.317h1.515a1.566 1.566 0 0 0 .492.982 1.59 1.59 0 0 0 1.15.41 1.372 1.372 0 0 0 1-.347 1.2 1.2 0 0 0 .354-.9 1.149 1.149 0 0 0-.263-.777 1.828 1.828 0 0 0-.646-.479 12.021 12.021 0 0 0-1.057-.4 9.239 9.239 0 0 1-1.336-.523 2.412 2.412 0 0 1-.876-.759 2.161 2.161 0 0 1-.362-1.305 2.231 2.231 0 0 1 .35-1.242 2.264 2.264 0 0 1 .994-.826 3.586 3.586 0 0 1 1.492-.292 3.264 3.264 0 0 1 2.132.646 2.437 2.437 0 0 1 .9 1.691h-1.53a1.5 1.5 0 0 0-.466-.853 1.464 1.464 0 0 0-1.039-.353 1.43 1.43 0 0 0-.957.3 1.079 1.079 0 0 0-.36.875 1.09 1.09 0 0 0 .25.74 1.692 1.692 0 0 0 .626.46c.252.113.6.243 1.037.393a8.9 8.9 0 0 1 1.361.527 2.461 2.461 0 0 1 .9.776 2.252 2.252 0 0 1 .366 1.344M79.741 98.153a1.919 1.919 0 0 0 1.377-.469 2.017 2.017 0 0 0 0-2.64 1.913 1.913 0 0 0-1.377-.47h-.718v3.58h.718zm3.4-1.789a3.309 3.309 0 0 1-.4 1.634 2.747 2.747 0 0 1-1.134 1.112 3.6 3.6 0 0 1-1.74.4h-2.365v-6.264h2.365a3.672 3.672 0 0 1 1.746.391 2.718 2.718 0 0 1 1.128 1.1 3.29 3.29 0 0 1 .4 1.631M76.3 93.25v1.206h-1.7v5.058h-1.522v-5.058h-1.683V93.25H76.3zm-5.91 4.5a1.723 1.723 0 0 1-.253.913 1.781 1.781 0 0 1-.744.664 2.62 2.62 0 0 1-1.19.25 2.806 2.806 0 0 1-1.737-.515 1.862 1.862 0 0 1-.744-1.436h1.612a.849.849 0 0 0 .252.558.78.78 0 0 0 .554.2.647.647 0 0 0 .462-.158.559.559 0 0 0 .168-.426.547.547 0 0 0-.155-.4 1.207 1.207 0 0 0-.385-.26 9.468 9.468 0 0 0-.638-.246 7.841 7.841 0 0 1-.97-.393 1.781 1.781 0 0 1-.647-.568 1.844 1.844 0 0 1 .015-1.944 1.792 1.792 0 0 1 .783-.624 2.854 2.854 0 0 1 1.147-.217 2.569 2.569 0 0 1 1.662.5 1.891 1.891 0 0 1 .7 1.364h-1.64a.839.839 0 0 0-.225-.492.669.669 0 0 0-.492-.182.636.636 0 0 0-.429.142.522.522 0 0 0-.164.416.533.533 0 0 0 .147.377 1.1 1.1 0 0 0 .368.252c.148.066.36.148.638.25a7.081 7.081 0 0 1 .985.4 1.865 1.865 0 0 1 .655.58 1.657 1.657 0 0 1 .274.991m-8.31-3.3v1.311h2.117V96.9h-2.117v1.39h2.383v1.213h-3.9v-6.264h3.9v1.206l-2.383.001zM186.9 94.716v-1.413h2.532v6.263h-1.6V94.72l-.933-.003zm-6.386 3.641q2.817-2.01 2.817-3.2 0-.728-.628-.727a.576.576 0 0 0-.519.248 1.53 1.53 0 0 0-.182.771h-1.48a2.355 2.355 0 0 1 .692-1.719 2.313 2.313 0 0 1 1.612-.576 2.1 2.1 0 0 1 1.538.514 1.805 1.805 0 0 1 .517 1.338 2.836 2.836 0 0 1-.7 1.784 6.558 6.558 0 0 1-1.675 1.476h2.472v1.222h-4.466l.002-1.13zm-3.735-1.992a3.34 3.34 0 0 1-.2 1.3.771.771 0 0 1-.784.456.787.787 0 0 1-.8-.456 3.278 3.278 0 0 1-.2-1.3 3.211 3.211 0 0 1 .2-1.285.786.786 0 0 1 .8-.45.774.774 0 0 1 .784.446 3.272 3.272 0 0 1 .2 1.29m-3.472 0a4.037 4.037 0 0 0 .593 2.328 2.514 2.514 0 0 0 3.787 0 4.812 4.812 0 0 0 0-4.646 2.523 2.523 0 0 0-3.787 0 4 4 0 0 0-.593 2.316m-6.659 1.992q2.817-2.01 2.818-3.2 0-.728-.629-.727a.576.576 0 0 0-.519.248 1.527 1.527 0 0 0-.182.771h-1.48a2.355 2.355 0 0 1 .692-1.719 2.313 2.313 0 0 1 1.612-.576 2.092 2.092 0 0 1 1.537.514 1.8 1.8 0 0 1 .518 1.338 2.836 2.836 0 0 1-.7 1.784 6.551 6.551 0 0 1-1.675 1.476h2.472v1.222h-4.466l.002-1.13z"></path></g></svg>